<?xml version="1.0" encoding="UTF-8" standalone="no"?>
<!-- Created with Inkscape (http://www.inkscape.org/) -->

<svg
   width="300mm"
   height="300mm"
   viewBox="0 0 333.33328 333.33329"
   version="1.1"
   id="svg1"
   inkscape:version="1.3.2 (091e20e, 2023-11-25, custom)"
   sodipodi:docname="process_modelling.svg"
   xmlns:inkscape="http://www.inkscape.org/namespaces/inkscape"
   xmlns:sodipodi="http://sodipodi.sourceforge.net/DTD/sodipodi-0.dtd"
   xmlns="http://www.w3.org/2000/svg"
   xmlns:svg="http://www.w3.org/2000/svg">
  <sodipodi:namedview
     id="namedview1"
     pagecolor="#ffffff"
     bordercolor="#000000"
     borderopacity="0.25"
     inkscape:showpageshadow="2"
     inkscape:pageopacity="0.0"
     inkscape:pagecheckerboard="0"
     inkscape:deskcolor="#d1d1d1"
     inkscape:document-units="mm"
     inkscape:zoom="0.93103385"
     inkscape:cx="557.98186"
     inkscape:cy="779.24127"
     inkscape:window-width="1920"
     inkscape:window-height="974"
     inkscape:window-x="-11"
     inkscape:window-y="-11"
     inkscape:window-maximized="1"
     inkscape:current-layer="layer1" />
  <defs
     id="defs1">
    <rect
       x="831.3339"
       y="134.25935"
       width="281.4076"
       height="67.666713"
       id="rect39" />
    <rect
       x="861.40799"
       y="148.22232"
       width="47.259291"
       height="64.444488"
       id="rect38" />
    <rect
       x="918.97754"
       y="107.08747"
       width="196.70676"
       height="277.21225"
       id="rect18" />
    <marker
       style="overflow:visible"
       id="marker11"
       refX="0"
       refY="0"
       orient="auto-start-reverse"
       inkscape:stockid="Wide, rounded arrow"
       markerWidth="1"
       markerHeight="1"
       viewBox="0 0 1 1"
       inkscape:isstock="true"
       inkscape:collect="always"
       preserveAspectRatio="xMidYMid">
      <path
         style="fill:none;stroke:context-stroke;stroke-width:1;stroke-linecap:round"
         d="M 3,-3 0,0 3,3"
         transform="rotate(180,0.125,0)"
         sodipodi:nodetypes="ccc"
         id="path11" />
    </marker>
    <marker
       style="overflow:visible"
       id="marker9"
       refX="0"
       refY="0"
       orient="auto-start-reverse"
       inkscape:stockid="Wide, rounded arrow"
       markerWidth="1"
       markerHeight="1"
       viewBox="0 0 1 1"
       inkscape:isstock="true"
       inkscape:collect="always"
       preserveAspectRatio="xMidYMid">
      <path
         style="fill:none;stroke:context-stroke;stroke-width:1;stroke-linecap:round"
         d="M 3,-3 0,0 3,3"
         transform="rotate(180,0.125,0)"
         sodipodi:nodetypes="ccc"
         id="path9" />
    </marker>
    <marker
       style="overflow:visible"
       id="ArrowWideRounded"
       refX="0"
       refY="0"
       orient="auto-start-reverse"
       inkscape:stockid="Wide, rounded arrow"
       markerWidth="1"
       markerHeight="1"
       viewBox="0 0 1 1"
       inkscape:isstock="true"
       inkscape:collect="always"
       preserveAspectRatio="xMidYMid">
      <path
         style="fill:none;stroke:context-stroke;stroke-width:1;stroke-linecap:round"
         d="M 3,-3 0,0 3,3"
         transform="rotate(180,0.125,0)"
         sodipodi:nodetypes="ccc"
         id="path2" />
    </marker>
    <rect
       x="504.81516"
       y="268.51871"
       width="55.851891"
       height="49.40744"
       id="rect5" />
    <rect
       x="201.92606"
       y="206.7594"
       width="27.925945"
       height="28.462982"
       id="rect2" />
    <rect
       x="201.92606"
       y="206.7594"
       width="27.925945"
       height="28.462982"
       id="rect4" />
    <rect
       x="504.81516"
       y="268.51871"
       width="55.851891"
       height="49.40744"
       id="rect6" />
    <rect
       x="504.81516"
       y="268.51871"
       width="55.851891"
       height="49.40744"
       id="rect9" />
    <rect
       x="504.81516"
       y="268.51871"
       width="55.851891"
       height="49.40744"
       id="rect11" />
    <rect
       x="504.81516"
       y="268.51871"
       width="55.851891"
       height="49.40744"
       id="rect12" />
    <rect
       x="504.81516"
       y="268.51871"
       width="55.851891"
       height="49.40744"
       id="rect16" />
    <rect
       x="504.81516"
       y="268.51871"
       width="55.851891"
       height="49.40744"
       id="rect17" />
    <rect
       x="504.81516"
       y="268.51871"
       width="55.851891"
       height="49.40744"
       id="rect31" />
    <rect
       x="504.81516"
       y="268.51871"
       width="55.851891"
       height="49.40744"
       id="rect32" />
    <rect
       x="504.81516"
       y="268.51871"
       width="55.851891"
       height="49.40744"
       id="rect33" />
    <rect
       x="504.81516"
       y="268.51871"
       width="55.851891"
       height="49.40744"
       id="rect34" />
    <rect
       x="831.3339"
       y="134.25935"
       width="281.4076"
       height="67.666713"
       id="rect40" />
    <rect
       x="831.3339"
       y="134.25935"
       width="281.4076"
       height="67.666713"
       id="rect41" />
    <rect
       x="831.3339"
       y="134.25935"
       width="281.4076"
       height="67.666713"
       id="rect43" />
  </defs>
  <g
     inkscape:label="Capa 1"
     inkscape:groupmode="layer"
     id="layer1"
     transform="translate(-20.911784,-19.628187)">
    <g
       id="g5"
       transform="translate(-60.119151,92.016391)">
      <path
         id="path4"
         style="fill:none;stroke:#000000"
         d="m 138.68096,122.19839 a 15.345843,15.345843 0 0 1 -15.34585,15.34584 15.345843,15.345843 0 0 1 -15.34584,-15.34584 15.345843,15.345843 0 0 1 15.34584,-15.34585 15.345843,15.345843 0 0 1 15.34585,15.34585 z" />
      <path
         d="m 505.70508,279.32858 v -8.58984 h 1.71094 l 2.0332,6.08203 q 0.28125,0.84961 0.41015,1.27149 0.14649,-0.46875 0.45704,-1.37696 l 2.05664,-5.97656 h 1.52929 v 8.58984 h -1.0957 v -7.18945 l -2.49609,7.18945 h -1.02539 l -2.48438,-7.3125 v 7.3125 z"
         id="text4"
         style="font-family:Arial;-inkscape-font-specification:Arial;white-space:pre;stroke:#000000;stroke-width:0.755906"
         transform="matrix(1.2310661,0,0,1.1985922,-504.26695,-207.45482)"
         aria-label="M" />
    </g>
    <g
       id="g6"
       transform="translate(-60.119151,137.24994)">
      <path
         id="circle5"
         style="fill:none;stroke:#000000"
         d="m 138.68096,122.19839 a 15.345843,15.345843 0 0 1 -15.34585,15.34584 15.345843,15.345843 0 0 1 -15.34584,-15.34584 15.345843,15.345843 0 0 1 15.34584,-15.34585 15.345843,15.345843 0 0 1 15.34585,15.34585 z" />
      <path
         d="m 505.70508,279.32858 v -8.58984 h 1.71094 l 2.0332,6.08203 q 0.28125,0.84961 0.41015,1.27149 0.14649,-0.46875 0.45704,-1.37696 l 2.05664,-5.97656 h 1.52929 v 8.58984 h -1.0957 v -7.18945 l -2.49609,7.18945 h -1.02539 l -2.48438,-7.3125 v 7.3125 z"
         id="text6"
         style="font-family:Arial;-inkscape-font-specification:Arial;white-space:pre;stroke:#000000;stroke-width:0.755906"
         transform="matrix(1.2310661,0,0,1.1985922,-504.26695,-207.45482)"
         aria-label="M" />
    </g>
    <circle
       id="path6"
       style="fill:#000000;stroke:#000000;stroke-width:0.264583"
       cx="63.215965"
       cy="213.41119"
       r="0.028613141" />
    <path
       style="fill:none;stroke:#000000;stroke-width:1.01681;stroke-dasharray:none;marker-end:url(#ArrowWideRounded)"
       d="m 78.328744,210.51961 h 11.752669 v 19.60848 h 9.695954"
       id="path7" />
    <path
       style="fill:none;stroke:#000000;stroke-width:1.017;stroke-dasharray:none;marker-end:url(#marker9)"
       d="M 78.328744,262.93627 H 90.081413 V 243.3278 h 9.695954"
       id="path8" />
    <g
       id="g20"
       transform="translate(-1.1759257,167.56911)">
      <path
         id="circle9"
         style="fill:#aaccff;stroke:#000000"
         d="M 191.06269,68.347603 A 15.345843,15.345843 0 0 1 175.71684,83.693446 15.345843,15.345843 0 0 1 160.371,68.347603 15.345843,15.345843 0 0 1 175.71684,53.00176 15.345843,15.345843 0 0 1 191.06269,68.347603 Z" />
      <path
         d="m 505.35352,276.56882 1.07226,-0.0937 q 0.0762,0.64453 0.35156,1.06055 0.28125,0.41015 0.86719,0.66796 0.58594,0.25196 1.31836,0.25196 0.65039,0 1.14844,-0.19336 0.49804,-0.19336 0.73828,-0.52735 0.24609,-0.33984 0.24609,-0.73828 0,-0.40429 -0.23437,-0.70312 -0.23438,-0.30469 -0.77344,-0.50977 -0.3457,-0.13476 -1.5293,-0.41601 -1.18359,-0.28711 -1.6582,-0.53907 -0.61523,-0.32226 -0.91992,-0.79687 -0.29883,-0.48047 -0.29883,-1.07227 0,-0.65039 0.36914,-1.21289 0.36914,-0.56836 1.07813,-0.86133 0.70898,-0.29296 1.57617,-0.29296 0.95508,0 1.68164,0.31054 0.73242,0.30469 1.125,0.90235 0.39258,0.59765 0.42187,1.35351 l -1.08984,0.082 q -0.0879,-0.81445 -0.59766,-1.23047 -0.5039,-0.41601 -1.49414,-0.41601 -1.03125,0 -1.50586,0.38086 -0.46875,0.375 -0.46875,0.9082 0,0.46289 0.33399,0.76172 0.32812,0.29883 1.71094,0.61523 1.38867,0.31055 1.90429,0.54493 0.75,0.3457 1.10742,0.8789 0.35743,0.52735 0.35743,1.21875 0,0.68555 -0.39258,1.29492 -0.39258,0.60352 -1.13086,0.94336 -0.73242,0.33399 -1.65235,0.33399 -1.16601,0 -1.95703,-0.33985 -0.78515,-0.33984 -1.23632,-1.01953 -0.44532,-0.68554 -0.46875,-1.54687 z m 8.35546,2.75976 v -8.58984 h 1.71094 l 2.0332,6.08203 q 0.28125,0.84961 0.41016,1.27149 0.14649,-0.46875 0.45703,-1.37696 l 2.05664,-5.97656 h 1.5293 v 8.58984 h -1.0957 v -7.18945 l -2.4961,7.18945 h -1.02539 l -2.48437,-7.3125 v 7.3125 z"
         id="text9"
         style="font-family:Arial;-inkscape-font-specification:Arial;white-space:pre;stroke:#000000;stroke-width:0.755906"
         transform="matrix(1.2310661,0,0,1.1985922,-456.59582,-261.30563)"
         aria-label="SM" />
    </g>
    <path
       style="fill:none;stroke:#d45500;stroke-width:1.03923;stroke-dasharray:none;marker-end:url(#marker11)"
       d="m 141.24573,236.41191 h 17.62555"
       id="path10" />
    <g
       id="g12"
       transform="translate(-60.119151,185.93305)">
      <path
         id="circle11"
         style="fill:none;stroke:#000000"
         d="m 138.68096,122.19839 a 15.345843,15.345843 0 0 1 -15.34585,15.34584 15.345843,15.345843 0 0 1 -15.34584,-15.34584 15.345843,15.345843 0 0 1 15.34584,-15.34585 15.345843,15.345843 0 0 1 15.34585,15.34585 z" />
      <path
         d="m 505.70508,279.32858 v -8.58984 h 1.71094 l 2.0332,6.08203 q 0.28125,0.84961 0.41015,1.27149 0.14649,-0.46875 0.45704,-1.37696 l 2.05664,-5.97656 h 1.52929 v 8.58984 h -1.0957 v -7.18945 l -2.49609,7.18945 h -1.02539 l -2.48438,-7.3125 v 7.3125 z"
         id="text12"
         style="font-family:Arial;-inkscape-font-specification:Arial;white-space:pre;stroke:#000000;stroke-width:0.755906"
         transform="matrix(1.2310661,0,0,1.1985922,-504.26695,-207.45482)"
         aria-label="M" />
    </g>
    <g
       id="g13"
       transform="translate(-1.1759257,167.56911)">
      <path
         id="rect1"
         style="fill:none;stroke:#000000"
         d="m 101.21073,55.811901 h 40.88122 V 81.90871 h -40.88122 z" />
      <path
         d="m 504.79687,279.32858 3.29883,-8.58984 h 1.22461 l 3.51563,8.58984 h -1.29492 l -1.00196,-2.60156 h -3.59179 l -0.94336,2.60156 z m 2.47852,-3.52734 h 2.91211 l -0.89648,-2.37891 q -0.41016,-1.08398 -0.60938,-1.78125 -0.16406,0.82618 -0.46289,1.64063 z"
         id="text11"
         style="font-family:Arial;-inkscape-font-specification:Arial;white-space:pre;stroke:#000000;stroke-width:0.755906"
         transform="matrix(1.2310661,0,0,1.1985922,-504.73526,-261.30563)"
         aria-label="A" />
      <path
         id="rect13"
         style="fill:none;stroke:#000000"
         d="m 101.21073,55.811901 h 40.88122 V 81.90871 h -40.88122 z" />
    </g>
    <rect
       style="fill:none;stroke:#000000;stroke-width:1;stroke-dasharray:none"
       id="rect14"
       width="40.881222"
       height="26.096809"
       x="226.4467"
       y="259.70956" />
    <text
       xml:space="preserve"
       transform="matrix(1.2310661,0,0,1.1985922,-379.49927,-56.896458)"
       id="text14"
       style="font-style:normal;font-variant:normal;font-weight:normal;font-stretch:normal;font-family:Arial;-inkscape-font-specification:Arial;white-space:pre;shape-inside:url(#rect16);display:inline;fill:#000000;stroke:#000000;stroke-width:0.755906;stroke-dasharray:none"><tspan
         x="504.81445"
         y="279.32858"
         id="tspan1">B</tspan></text>
    <path
       id="rect15"
       style="fill:none;stroke:#000000"
       d="m 226.4467,259.70956 h 40.88122 v 26.09681 H 226.4467 Z" />
    <g
       id="g21"
       transform="translate(-1.1759257,167.56911)">
      <path
         id="circle16"
         style="fill:#80ff80;stroke:#000000"
         d="m 338.64727,105.18793 a 15.345843,15.345843 0 0 1 -15.34585,15.34584 15.345843,15.345843 0 0 1 -15.34584,-15.34584 15.345843,15.345843 0 0 1 15.34584,-15.345846 15.345843,15.345843 0 0 1 15.34585,15.345846 z" />
      <text
         xml:space="preserve"
         transform="matrix(1.2310661,0,0,1.1985922,-302.69569,-224.46528)"
         id="text16"
         style="font-style:normal;font-variant:normal;font-weight:normal;font-stretch:normal;font-family:Arial;-inkscape-font-specification:Arial;white-space:pre;shape-inside:url(#rect17);display:inline;fill:#000000;stroke:#000000;stroke-width:0.755906;stroke-dasharray:none"><tspan
           x="504.81445"
           y="279.32858"
           id="tspan2">T</tspan></text>
    </g>
    <text
       xml:space="preserve"
       transform="matrix(0.29398145,0,0,0.29398145,20.911784,19.628187)"
       id="text17"
       style="font-style:normal;font-variant:normal;font-weight:normal;font-stretch:normal;font-family:Arial;-inkscape-font-specification:Arial;white-space:pre;shape-inside:url(#rect18);display:inline;fill:#aaccff;stroke:#000000;stroke-width:3.84378;stroke-dasharray:none" />
    <path
       style="fill:none;stroke:#000000;stroke-width:1.01681;stroke-dasharray:none;marker-end:url(#ArrowWideRounded)"
       d="m 190.0627,235.23585 h 25.27581 v 31.95564 h 10.28391"
       id="path18"
       sodipodi:nodetypes="cccc" />
    <path
       style="fill:none;stroke:#d45500;stroke-width:1.03923;stroke-dasharray:none;marker-end:url(#marker11)"
       d="m 267.06092,272.75653 h 39.38017"
       id="path19"
       sodipodi:nodetypes="cc" />
    <path
       style="fill:none;stroke:#000000;stroke-width:1.017;stroke-dasharray:none;marker-end:url(#marker9)"
       d="M 78.328744,308.20919 H 215.90548 v -30.1918 h 9.69595"
       id="path20"
       sodipodi:nodetypes="cccc" />
    <text
       xml:space="preserve"
       style="font-style:normal;font-variant:normal;font-weight:normal;font-stretch:normal;font-size:3.52778px;font-family:Arial;-inkscape-font-specification:Arial;fill:#80ff80;stroke:#000000;stroke-width:0.166667;stroke-dasharray:none"
       x="80.472488"
       y="208.71423"
       id="text21"><tspan
         sodipodi:role="line"
         id="tspan21"
         style="fill:#162d50;stroke:#162d50;stroke-width:0.166667;stroke-dasharray:none"
         x="80.472488"
         y="208.71423">orden de seguimiento: picking</tspan></text>
    <text
       xml:space="preserve"
       style="font-style:normal;font-variant:normal;font-weight:normal;font-stretch:normal;font-size:3.52778px;font-family:Arial;-inkscape-font-specification:Arial;fill:#80ff80;stroke:#000000;stroke-width:0.166667;stroke-dasharray:none"
       x="90.296577"
       y="305.39182"
       id="text22"><tspan
         sodipodi:role="line"
         id="tspan22"
         style="fill:#162d50;stroke:#162d50;stroke-width:0.166667;stroke-dasharray:none"
         x="90.296577"
         y="305.39182">orden de seguimiento: picking</tspan></text>
    <text
       xml:space="preserve"
       style="font-style:normal;font-variant:normal;font-weight:normal;font-stretch:normal;font-size:3.52778px;font-family:Arial;-inkscape-font-specification:Arial;fill:#80ff80;stroke:#000000;stroke-width:0.166667;stroke-dasharray:none"
       x="193.22617"
       y="223.00392"
       id="text23"><tspan
         sodipodi:role="line"
         id="tspan23"
         style="fill:#162d50;stroke:#162d50;stroke-width:0.166667;stroke-dasharray:none"
         x="193.22617"
         y="223.00392">orden de </tspan><tspan
         sodipodi:role="line"
         style="fill:#162d50;stroke:#162d50;stroke-width:0.166667;stroke-dasharray:none"
         x="193.22617"
         y="227.41365"
         id="tspan24">seguimiento: </tspan><tspan
         sodipodi:role="line"
         style="fill:#162d50;stroke:#162d50;stroke-width:0.166667;stroke-dasharray:none"
         x="193.22617"
         y="231.82336"
         id="tspan25">semiTerminado</tspan></text>
    <g
       id="g26"
       transform="translate(-60.119151,-33.219724)">
      <path
         id="circle25"
         style="fill:none;stroke:#000000"
         d="m 138.68096,122.19839 a 15.345843,15.345843 0 0 1 -15.34585,15.34584 15.345843,15.345843 0 0 1 -15.34584,-15.34584 15.345843,15.345843 0 0 1 15.34584,-15.34585 15.345843,15.345843 0 0 1 15.34585,15.34585 z" />
      <path
         d="m 505.70508,279.32858 v -8.58984 h 1.71094 l 2.0332,6.08203 q 0.28125,0.84961 0.41015,1.27149 0.14649,-0.46875 0.45704,-1.37696 l 2.05664,-5.97656 h 1.52929 v 8.58984 h -1.0957 v -7.18945 l -2.49609,7.18945 h -1.02539 l -2.48438,-7.3125 v 7.3125 z"
         id="text26"
         style="font-family:Arial;-inkscape-font-specification:Arial;white-space:pre;stroke:#000000;stroke-width:0.755906"
         transform="matrix(1.2310661,0,0,1.1985922,-504.26695,-207.45482)"
         aria-label="M" />
    </g>
    <g
       id="g27"
       transform="translate(-60.119151,12.01401)">
      <path
         id="circle26"
         style="fill:none;stroke:#000000"
         d="m 138.68096,122.19839 a 15.345843,15.345843 0 0 1 -15.34585,15.34584 15.345843,15.345843 0 0 1 -15.34584,-15.34584 15.345843,15.345843 0 0 1 15.34584,-15.34585 15.345843,15.345843 0 0 1 15.34585,15.34585 z" />
      <path
         d="m 505.70508,279.32858 v -8.58984 h 1.71094 l 2.0332,6.08203 q 0.28125,0.84961 0.41015,1.27149 0.14649,-0.46875 0.45704,-1.37696 l 2.05664,-5.97656 h 1.52929 v 8.58984 h -1.0957 v -7.18945 l -2.49609,7.18945 h -1.02539 l -2.48438,-7.3125 v 7.3125 z"
         id="text27"
         style="font-family:Arial;-inkscape-font-specification:Arial;white-space:pre;stroke:#000000;stroke-width:0.755906"
         transform="matrix(1.2310661,0,0,1.1985922,-504.26695,-207.45482)"
         aria-label="M" />
    </g>
    <circle
       id="circle27"
       style="fill:#000000;stroke:#000000;stroke-width:0.264583"
       cx="63.215965"
       cy="88.174728"
       r="0.028613141" />
    <path
       style="fill:none;stroke:#000000;stroke-width:1.01681;stroke-dasharray:none;marker-end:url(#ArrowWideRounded)"
       d="m 78.328744,85.284052 h 11.752669 v 19.608558 h 9.695954"
       id="path27" />
    <path
       style="fill:none;stroke:#000000;stroke-width:1.017;stroke-dasharray:none;marker-end:url(#marker9)"
       d="m 78.328744,137.70079 h 11.752669 v -19.60847 h 9.695954"
       id="path28" />
    <g
       id="g28"
       transform="translate(-1.1759257,42.333333)">
      <path
         id="circle28"
         style="fill:#aaccff;stroke:#000000"
         d="M 191.06269,68.347603 A 15.345843,15.345843 0 0 1 175.71684,83.693446 15.345843,15.345843 0 0 1 160.371,68.347603 15.345843,15.345843 0 0 1 175.71684,53.00176 15.345843,15.345843 0 0 1 191.06269,68.347603 Z" />
      <path
         d="m 505.35352,276.56882 1.07226,-0.0937 q 0.0762,0.64453 0.35156,1.06055 0.28125,0.41015 0.86719,0.66796 0.58594,0.25196 1.31836,0.25196 0.65039,0 1.14844,-0.19336 0.49804,-0.19336 0.73828,-0.52735 0.24609,-0.33984 0.24609,-0.73828 0,-0.40429 -0.23437,-0.70312 -0.23438,-0.30469 -0.77344,-0.50977 -0.3457,-0.13476 -1.5293,-0.41601 -1.18359,-0.28711 -1.6582,-0.53907 -0.61523,-0.32226 -0.91992,-0.79687 -0.29883,-0.48047 -0.29883,-1.07227 0,-0.65039 0.36914,-1.21289 0.36914,-0.56836 1.07813,-0.86133 0.70898,-0.29296 1.57617,-0.29296 0.95508,0 1.68164,0.31054 0.73242,0.30469 1.125,0.90235 0.39258,0.59765 0.42187,1.35351 l -1.08984,0.082 q -0.0879,-0.81445 -0.59766,-1.23047 -0.5039,-0.41601 -1.49414,-0.41601 -1.03125,0 -1.50586,0.38086 -0.46875,0.375 -0.46875,0.9082 0,0.46289 0.33399,0.76172 0.32812,0.29883 1.71094,0.61523 1.38867,0.31055 1.90429,0.54493 0.75,0.3457 1.10742,0.8789 0.35743,0.52735 0.35743,1.21875 0,0.68555 -0.39258,1.29492 -0.39258,0.60352 -1.13086,0.94336 -0.73242,0.33399 -1.65235,0.33399 -1.16601,0 -1.95703,-0.33985 -0.78515,-0.33984 -1.23632,-1.01953 -0.44532,-0.68554 -0.46875,-1.54687 z m 8.35546,2.75976 v -8.58984 h 1.71094 l 2.0332,6.08203 q 0.28125,0.84961 0.41016,1.27149 0.14649,-0.46875 0.45703,-1.37696 l 2.05664,-5.97656 h 1.5293 v 8.58984 h -1.0957 v -7.18945 l -2.4961,7.18945 h -1.02539 l -2.48437,-7.3125 v 7.3125 z"
         id="text28"
         style="font-family:Arial;-inkscape-font-specification:Arial;white-space:pre;stroke:#000000;stroke-width:0.755906"
         transform="matrix(1.2310661,0,0,1.1985922,-456.59582,-261.30563)"
         aria-label="SM" />
    </g>
    <path
       style="fill:none;stroke:#d45500;stroke-width:1.03923;stroke-dasharray:none;marker-end:url(#marker11)"
       d="m 141.24573,111.17643 h 17.62555"
       id="path29" />
    <rect
       style="fill:none;stroke:#000000;stroke-width:1;stroke-dasharray:none"
       id="rect29"
       width="40.881222"
       height="26.096809"
       x="100.03481"
       y="98.145233" />
    <path
       d="m 504.79687,279.32858 3.29883,-8.58984 h 1.22461 l 3.51563,8.58984 h -1.29492 l -1.00196,-2.60156 h -3.59179 l -0.94336,2.60156 z m 2.47852,-3.52734 h 2.91211 l -0.89648,-2.37891 q -0.41016,-1.08398 -0.60938,-1.78125 -0.16406,0.82618 -0.46289,1.64063 z"
       id="text29"
       style="font-family:Arial;-inkscape-font-specification:Arial;white-space:pre;stroke:#000000;stroke-width:0.755906"
       transform="matrix(1.2310661,0,0,1.1985922,-505.91119,-218.9723)"
       aria-label="A" />
    <rect
       style="fill:none;stroke:#000000;stroke-width:1;stroke-dasharray:none"
       id="rect30"
       width="40.881222"
       height="26.096809"
       x="100.03481"
       y="98.145233" />
    <text
       xml:space="preserve"
       style="font-style:normal;font-variant:normal;font-weight:normal;font-stretch:normal;font-size:3.52778px;font-family:Arial;-inkscape-font-specification:Arial;fill:#80ff80;stroke:#000000;stroke-width:0.166667;stroke-dasharray:none"
       x="80.472488"
       y="83.477829"
       id="text30"><tspan
         sodipodi:role="line"
         id="tspan30"
         style="fill:#162d50;stroke:#162d50;stroke-width:0.166667;stroke-dasharray:none"
         x="80.472488"
         y="83.477829">orden de seguimiento: picking</tspan></text>
    <rect
       style="fill:#ff6600;stroke:#ff6600;stroke-width:0.0804533;stroke-dasharray:none"
       id="rect35"
       width="10.821987"
       height="10.821987"
       x="184.86366"
       y="-62.759857"
       ry="0"
       transform="rotate(45)" />
    <rect
       style="fill:#ff6600;stroke:#ff6600;stroke-width:0.0804533;stroke-dasharray:none"
       id="rect36"
       width="10.821987"
       height="10.821987"
       x="404.11938"
       y="-51.596123"
       ry="0"
       transform="rotate(45)" />
    <rect
       style="fill:#ff6600;stroke:#ff6600;stroke-width:0.0557389;stroke-dasharray:none"
       id="rect37"
       width="7.4975815"
       height="7.4975815"
       x="219.28212"
       y="-119.82787"
       ry="0"
       transform="rotate(45)" />
    <text
       xml:space="preserve"
       transform="matrix(0.55819121,0,0,0.55819121,-216.12114,-3.4431218)"
       id="text38"
       style="font-style:normal;font-variant:normal;font-weight:normal;font-stretch:normal;font-family:Arial;-inkscape-font-specification:Arial;white-space:pre;shape-inside:url(#rect39);display:inline;fill:#ff6600;stroke:#ff6600;stroke-width:0.566929;stroke-dasharray:none"><tspan
         x="831.33398"
         y="145.06882"
         id="tspan4"><tspan
           style="fill:#000000;stroke:#000000"
           id="tspan3">orden de produccion</tspan></tspan></text>
    <path
       style="fill:none;stroke:#d45500;stroke-width:0.95617;stroke-dasharray:none;marker-end:url(#marker11)"
       d="m 231.03927,89.973605 h 14.9207"
       id="path39" />
    <path
       style="fill:#000000;stroke:#000000;stroke-width:0.95617;stroke-dasharray:none;marker-end:url(#marker11)"
       d="m 231.03927,101.73285 h 14.9207"
       id="path40" />
    <text
       xml:space="preserve"
       transform="matrix(0.55819121,0,0,0.55819121,-213.7693,10.667988)"
       id="text40"
       style="font-style:normal;font-variant:normal;font-weight:normal;font-stretch:normal;font-family:Arial;-inkscape-font-specification:Arial;white-space:pre;shape-inside:url(#rect40);display:inline;fill:#ff6600;stroke:#ff6600;stroke-width:0.566929;stroke-dasharray:none"><tspan
         x="831.33398"
         y="145.06882"
         id="tspan6"><tspan
           style="fill:#000000;stroke:#000000"
           id="tspan5">Salida de proceso</tspan></tspan></text>
    <text
       xml:space="preserve"
       transform="matrix(0.55819121,0,0,0.55819121,-213.7693,22.427248)"
       id="text41"
       style="font-style:normal;font-variant:normal;font-weight:normal;font-stretch:normal;font-family:Arial;-inkscape-font-specification:Arial;white-space:pre;shape-inside:url(#rect41);display:inline;fill:#ff6600;stroke:#ff6600;stroke-width:0.566929;stroke-dasharray:none"><tspan
         x="831.33398"
         y="145.06882"
         id="tspan8"><tspan
           style="fill:#000000;stroke:#000000"
           id="tspan7">Orden de seguimiento</tspan></tspan></text>
    <rect
       style="fill:none;stroke:#000000;stroke-width:0.888889;stroke-dasharray:none"
       id="rect42"
       width="17.895536"
       height="11.423738"
       x="228.80095"
       y="110.18895" />
    <text
       xml:space="preserve"
       transform="matrix(0.55819121,0,0,0.55819121,-213.7693,36.53836)"
       id="text42"
       style="font-style:normal;font-variant:normal;font-weight:normal;font-stretch:normal;font-family:Arial;-inkscape-font-specification:Arial;white-space:pre;shape-inside:url(#rect43);display:inline;fill:#ff6600;stroke:#ff6600;stroke-width:0.566929;stroke-dasharray:none"><tspan
         x="831.33398"
         y="145.06882"
         id="tspan10"><tspan
           style="fill:#000000;stroke:#000000"
           id="tspan9">Proceso / Seccion Responsable</tspan></tspan></text>
  </g>
</svg>
