<?xml version="1.0" encoding="UTF-8" standalone="no"?>
<!-- Created with Inkscape (http://www.inkscape.org/) -->

<svg
   width="222.1308mm"
   height="222.54572mm"
   viewBox="0 0 222.1308 222.54572"
   version="1.1"
   id="svg1"
   xml:space="preserve"
   inkscape:version="1.3.2 (091e20e, 2023-11-25, custom)"
   sodipodi:docname="logo_exotic.svg"
   xmlns:inkscape="http://www.inkscape.org/namespaces/inkscape"
   xmlns:sodipodi="http://sodipodi.sourceforge.net/DTD/sodipodi-0.dtd"
   xmlns="http://www.w3.org/2000/svg"
   xmlns:svg="http://www.w3.org/2000/svg"><sodipodi:namedview
     id="namedview1"
     pagecolor="#ffffff"
     bordercolor="#000000"
     borderopacity="0.25"
     inkscape:showpageshadow="2"
     inkscape:pageopacity="0.0"
     inkscape:pagecheckerboard="0"
     inkscape:deskcolor="#d1d1d1"
     inkscape:document-units="mm"
     inkscape:zoom="0.65834035"
     inkscape:cx="66.075245"
     inkscape:cy="403.28684"
     inkscape:window-width="1920"
     inkscape:window-height="974"
     inkscape:window-x="-11"
     inkscape:window-y="-11"
     inkscape:window-maximized="1"
     inkscape:current-layer="layer1" /><defs
     id="defs1" /><g
     inkscape:label="Capa 1"
     inkscape:groupmode="layer"
     id="layer1"
     transform="translate(8.3806028,-55.084287)"><g
       id="g8"
       transform="translate(5.2246309,25.721245)"><path
         style="fill:#eba6d0"
         d="m 89.088106,251.70468 c -11.111786,-2.70515 -7.527051,-24.23288 8.681152,-52.13369 2.803022,-4.82512 2.749612,-4.65423 1.331679,-4.2605 -7.174801,1.99226 -9.099803,-5.32837 -4.016449,-15.27424 5.583442,-10.92433 11.353812,-16.22335 14.375722,-13.20144 3.39065,3.39065 -0.25911,20.03332 -4.04906,18.46347 -1.62545,-0.67329 -1.76775,-2.41114 -0.45275,-5.52912 3.78875,-8.98348 2.14788,-10.34069 -3.04237,-2.51642 -6.505237,9.8066 -7.276602,13.69894 -2.485912,12.54401 6.537662,-1.57607 8.279612,1.5549 4.487122,8.06513 -8.465837,14.53257 -12.007846,21.66961 -14.561828,29.34164 -5.474545,16.44526 -1.195183,24.93052 7.843524,15.55239 6.913244,-7.17285 10.174934,-12.66682 19.673104,-33.13716 3.16282,-6.81648 5.48052,-11.48669 5.88533,-11.85904 l 0.6678,-0.61424 -0.18977,-5.14008 -0.18977,-5.14008 0.79411,-0.79411 c 1.29967,-1.29966 3.183,-0.3512 3.24245,1.63293 0.0714,2.38322 0.32822,2.24906 1.67367,-0.87431 4.06773,-9.44293 5.6207,-11.45396 7.44011,-9.63456 1.07394,1.07394 0.89451,2.38468 -0.77653,5.67282 -2.33276,4.5902 -6.83358,15.42132 -7.04811,16.96109 -0.51862,3.7224 4.31193,-1.7418 10.29166,-11.64167 l 2.63693,-4.36563 0.0879,-3.48522 c 0.11378,-4.51443 1.61437,-6.39146 3.34786,-4.18769 0.6779,0.86181 0.74107,0.84319 1.12163,-0.33073 3.34051,-10.3045 9.33428,-8.65101 9.35114,2.57969 0.0172,11.44285 -4.44769,20.60587 -8.8838,18.23173 -0.2971,-0.159 -0.63776,-0.18876 -0.75702,-0.0661 -0.55396,0.56955 0.46791,20.89971 1.3544,26.94586 0.86749,5.91657 -0.28596,8.64721 -2.59847,6.15157 -1.5992,-1.72584 -2.97731,-16.22786 -2.97947,-31.35313 -8.1e-4,-5.72553 -0.0275,-5.7803 -1.61204,-3.30729 -4.77513,7.4526 -8.32832,11.17534 -10.91961,11.44065 l -1.31727,0.13487 -0.44936,2.68458 c -0.72455,4.32868 -1.86097,5.83684 -3.64598,4.83863 -1.07463,-0.60095 -1.3132,-1.96004 -0.73523,-4.18845 1.0854,-4.18481 0.28812,-3.03246 -3.37904,4.88392 -12.48752,26.95701 -22.219402,38.85219 -30.197404,36.90996 z m 59.817424,-61.70771 c 1.7894,-3.53121 3.28475,-14.50947 1.97633,-14.50947 -1.13325,0 -3.8653,12.13979 -3.35009,14.88605 0.24934,1.32914 0.55136,1.24635 1.37376,-0.37658 z M 9.3888606,232.51181 c -11.8850997,-3.34665 -18.1120075,-17.42647 -15.5407925,-35.1397 1.5080999,-10.38938 5.82133338,-22.03797 11.0183264,-29.75679 1.8221298,-2.70632 1.8592781,-2.8519 0.5926732,-2.32268 -5.32563239,2.22519 -14.4212562,-1.74759 -17.2667627,-7.54176 -5.3172,-10.82717 1.898274,-38.61433 12.00363096,-46.22659 5.15184874,-3.88084 13.30145704,-3.41262 18.00347304,1.03435 4.734486,4.47768 4.835565,19.80178 0.130615,19.80178 -2.591305,0 -3.089323,-0.87628 -3.308193,-5.82084 -0.275381,-6.22121 -0.356792,-6.25329 -2.979539,-1.17405 -4.5806736,8.871 -6.3675924,15.63186 -6.621512,25.0527 -0.1638696,6.07983 -0.4684338,5.66416 3.1314658,4.27388 6.3340582,-2.44622 8.8791292,-2.17844 12.1840612,1.28195 5.157397,5.39999 4.792081,12.72795 -1.273145,25.53828 -5.590256,11.80716 -8.011822,21.30105 -8.871043,34.77947 -0.505288,7.92633 0.03717,10.12655 2.344517,9.50943 5.560047,-1.48708 10.25299,-6.2981 14.752987,-15.12416 7.746198,-15.19299 11.038078,-32.04183 10.002702,-51.19687 l -0.243123,-4.49792 -1.131779,-2.38125 c -4.326715,-9.10335 -8.744943,-22.90016 -8.744943,-27.30784 0,-7.66697 13.79744,-11.96817 17.197403,-5.3611 0.264104,0.51323 1.156331,2.83495 1.982726,5.15938 4.069494,11.4464 8.605397,22.23111 9.107892,21.65522 0.110892,-0.12709 0.464275,-2.07654 0.785295,-4.33212 2.985006,-20.97346 0.944182,-36.20019 -5.299034,-39.53646 -5.837367,-3.119397 -0.382629,-5.693401 5.619641,-2.65182 7.498737,3.7999 9.087051,21.46837 4.307516,47.91698 -0.529934,2.93251 -0.891796,5.61141 -0.804139,5.95313 0.743758,2.89939 13.4072,15.71406 14.448444,14.62099 2.189694,-2.29869 2.512963,-18.88607 0.548706,-28.1549 -2.649332,-12.50153 -1.697909,-22.07613 2.668587,-26.85521 0.675951,-0.73982 1.024838,-1.41666 1.159258,-2.24896 0.536878,-3.32423 6.79579,-6.52378 10.920117,-5.58236 0.835476,0.19071 1.838747,0.40604 2.229491,0.47852 0.708221,0.13137 10.326227,-4.72341 11.024417,-5.56467 0.20956,-0.2525 0.10732,-1.306086 -0.37853,-3.900693 -0.3661,-1.955113 -0.89214,-4.804907 -1.16898,-6.332875 -0.53144,-2.933254 -2.226304,-15.498596 -2.51876,-18.673526 -0.287989,-3.126423 1.21497,-3.276343 -12.344179,1.231328 -13.691512,4.551674 -18.581271,8.238773 -21.104023,15.913387 -1.69303,5.150469 -5.875972,4.097347 -5.502826,-1.385423 0.438642,-6.44512 6.435148,-13.393356 15.010562,-17.392951 4.123836,-1.923368 18.742925,-7.108495 22.140572,-7.852862 1.142498,-0.250302 1.256498,-0.456231 1.767649,-3.193077 1.070695,-5.732802 3.968555,-8.598958 8.694085,-8.598958 2.58813,0 5.50064,1.871032 6.4586,4.149094 0.51529,1.225368 0.65399,1.237302 2.83403,0.243827 12.1268,-5.52636 24.51209,-16.685545 24.51647,-22.089407 0.003,-3.18536 2.85262,-4.811213 4.132,-2.357172 2.07768,3.985293 -0.4388,11.081114 -5.84689,16.486677 -4.81984,4.817587 -12.53683,10.150337 -20.47541,14.149332 l -2.21327,1.114917 0.12887,1.361262 c 1.814,19.161491 5.58674,39.25713 10.28944,54.80709 2.8117,9.29717 8.93464,25.84386 9.61865,25.99351 1.56845,0.34315 3.09287,-29.28587 1.84104,-35.78309 -4.68052,-24.292791 -2.78106,-32.782388 7.41987,-33.162879 6.65827,-0.24835 7.81822,1.572157 9.24505,14.509754 1.57944,14.321485 3.54134,22.978955 7.53973,33.271355 1.10647,2.8482 1.53905,2.67097 2.74471,-1.12448 2.23758,-7.04397 3.09207,-29.027313 1.43527,-36.925053 -4.0249,-19.186096 -2.53188,-34.251036 3.85662,-38.914138 7.9621,-5.811712 18.96595,-4.683288 22.26148,2.282872 2.13687,4.516973 2.19884,13.306536 0.1,14.175924 -2.27203,0.941106 -2.84761,0.242032 -4.69896,-5.707104 -1.93284,-6.211002 -2.27726,-6.290003 -3.7445,-0.858871 -2.72586,10.090051 1.09488,33.066991 7.35825,44.25054 3.56682,6.36873 3.28888,6.25472 5.3161,2.18056 3.62162,-7.278461 6.05257,-20.557314 6.12908,-33.479568 0.005,-0.923813 1.13903,-1.906203 2.19952,-1.906203 3.78898,0 1.87579,27.451113 -2.749,39.443591 -4.97802,12.90842 -19.33219,13.20693 -27.96372,0.58153 -1.65241,-2.41699 -1.64552,-2.42875 -1.64661,2.81533 -0.002,9.31764 -1.21142,16.53238 -3.54286,21.13324 -4.37991,8.64334 -17.74712,8.21417 -23.87721,-0.7666 -1.56129,-2.28732 -1.60376,-2.20874 -1.65188,3.05607 -0.16023,17.5288 -3.22853,23.79751 -11.8341,24.17771 -10.57613,0.46726 -16.64263,-7.64191 -23.22257,-31.04191 -1.53552,-5.46074 -2.80927,-10.33333 -3.87325,-14.81667 -1.38915,-5.8535 -0.98024,-5.51796 -4.40021,-3.61076 -4.355268,2.42879 -4.101924,1.99071 -2.505747,4.33295 7.196927,10.56083 9.542837,32.82669 4.462787,42.35784 -3.934735,7.38232 -12.576332,8.7195 -19.329111,2.99094 -0.965162,-0.81878 -1.817957,-1.48868 -1.895099,-1.48868 -0.07714,0 -0.140259,1.30359 -0.140259,2.89687 0,19.7368 -13.01217,29.35685 -26.638037,19.69381 -2.053219,-1.45608 -2.103768,-1.45158 -2.581376,0.22963 -1.404831,4.94511 -2.100719,10.72278 -1.950901,16.19752 l 0.118638,4.33532 1.125845,2.26201 c 1.224957,2.46114 1.239214,2.9659 0.108885,3.85502 -2.60983,2.05289 -5.764174,-1.40934 -6.668884,-7.31982 -0.665809,-4.34974 -0.312993,-7.52792 2.122961,-19.12373 l 1.304511,-6.20983 -0.867176,-1.21275 c -0.476946,-0.66701 -1.691774,-2.37012 -2.699618,-3.7847 -2.246954,-3.15375 -2.258534,-3.14115 -2.26738,2.46815 -0.0519,32.91113 -18.400261,66.19628 -34.0598384,61.78681 z M 97.648103,149.20486 c 3.510967,-9.38389 0.837565,-28.64511 -4.825965,-34.76996 -1.637713,-1.77112 -3.344079,-0.97174 -2.710754,1.26989 0.458529,1.62295 0.920101,4.72496 1.907463,12.81917 1.126013,9.23085 2.213839,14.76988 3.858196,19.64531 0.961747,2.85153 1.068314,2.91384 1.77106,1.03559 z m 62.255527,37.74003 c -3.89792,-1.92052 -4.20085,-19.75829 -0.39234,-23.10221 4.77654,-4.19386 6.51489,9.20803 1.92589,14.84775 -0.47875,0.58836 -0.52785,0.85676 -0.3351,1.83146 0.30115,1.52279 0.68024,1.57144 1.60221,0.20562 0.77819,-1.15283 1.22222,-2.14243 3.95383,-8.81189 l 1.51712,-3.70416 0.0181,-3.83646 c 0.0229,-4.87151 0.70343,-6.1532 2.80483,-5.28277 0.57703,0.23901 0.88624,0.21034 1.57552,-0.1461 1.09828,-0.56795 1.85153,-0.25724 2.72295,1.12319 1.22995,1.94837 1.98423,2.0785 2.993,0.51639 0.53388,-0.82673 1.50031,-19.76481 1.0325,-20.23262 -0.28991,-0.28991 -8.11438,5.97301 -12.11467,9.69694 -2.49726,2.32472 -2.95108,2.49299 -4.08738,1.51559 -0.63711,-0.54802 -0.74236,-0.83442 -0.74236,-2.02008 v -1.38153 l 2.85852,-2.72336 c 3.01882,-2.87607 7.90492,-6.86355 12.08968,-9.86619 l 2.51278,-1.80297 0.44868,-5.79876 c 0.65819,-8.50668 0.88868,-9.37065 2.49985,-9.37065 2.09491,0 2.34703,0.93848 1.83433,6.82799 -0.22864,2.62645 -0.41571,4.84351 -0.41571,4.92681 0,0.35316 0.62972,0.0839 2.31239,-0.98871 4.50182,-2.86968 11.72705,-7.11485 13.43031,-7.89097 2.47763,-1.12896 4.72528,-0.447 5.71598,1.7343 1.39625,3.07425 -0.80859,5.76492 -3.00201,3.66349 l -0.75457,-0.72292 -1.50886,0.7852 c -4.0322,2.09831 -16.14754,9.64059 -16.50129,10.2727 -0.71561,1.27874 -0.98831,25.57987 -0.34253,30.52492 0.77027,5.89836 2.09948,10.92761 2.88811,10.92761 1.82999,0 7.88743,-20.43334 8.4972,-28.6633 0.27664,-3.73373 1.15249,-5.07071 2.88924,-4.4104 2.89775,1.10172 0.26528,16.22253 -5.45999,31.36192 -4.49734,11.89234 -10.4604,8.98339 -12.52335,-6.10926 -0.6224,-4.55348 -0.58097,-4.41484 -1.21734,-4.07426 -0.86704,0.46402 -2.5287,0.35745 -3.66552,-0.23509 -0.58128,-0.30298 -1.11489,-0.457 -1.1858,-0.34227 -0.16067,0.25997 -0.63867,6.00404 -0.84866,10.19822 -0.21614,4.31722 -1.53979,5.63826 -3.59256,3.58548 -0.44309,-0.44309 -0.85186,-0.75937 -0.90839,-0.70285 -0.0565,0.0565 -0.63168,1.18949 -1.27814,2.51771 -2.25064,4.62419 -4.73652,6.39312 -7.24641,5.15649 z M 142.59397,69.418164 c -5.63084,-1.858912 -5.8122,-6.838524 -0.32461,-8.912904 4.08466,-1.544058 9.66126,1.403241 9.6563,5.103473 -0.004,2.942082 -5.34923,5.124162 -9.33169,3.809431 z"
         id="path14" /><path
         style="fill:#dc8bb8"
         d="m 88.29728,251.26394 c -10.321031,-3.7774 -5.94868,-25.32764 10.907703,-53.76137 1.614027,-2.72258 1.623187,-2.86281 0.160538,-2.45667 -7.121935,1.97758 -9.168278,-4.46837 -4.487141,-14.13444 7.28647,-15.04582 15.98307,-19.83501 15.85489,-8.73125 -0.0595,5.15236 -2.85961,13.09687 -4.61614,13.09687 -2.08474,0 -2.45437,-1.76622 -1.08427,-5.18102 3.76586,-9.38589 2.25448,-11.17573 -2.93129,-3.47135 -6.711766,9.97154 -7.714728,14.66282 -2.870364,13.42594 3.930594,-1.00357 5.770374,-0.48603 6.378054,1.79418 0.47793,1.79334 0.058,2.78447 -4.33552,10.23329 -15.636049,26.50938 -19.643672,48.03451 -8.216884,44.13325 5.611474,-1.91584 13.094214,-13.17009 23.274234,-35.00512 3.81553,-8.1839 6.22932,-13.05255 6.66349,-13.44034 l 0.68077,-0.60805 -0.22799,-4.28674 c -0.28474,-5.35342 -0.24145,-5.94959 0.48834,-6.72642 1.3133,-1.39794 2.80186,-0.16083 3.04599,2.53146 0.19633,2.1652 0.31843,2.08526 1.65556,-1.08397 4.12119,-9.76793 6.1657,-12.4086 7.68188,-9.92188 0.77281,1.2675 0.69562,1.60389 -1.29354,5.6369 -4.81227,9.75691 -7.643,17.65309 -6.46681,18.03885 1.11821,0.36675 6.28383,-6.27554 10.5419,-13.55544 0.85116,-1.4552 1.71889,-2.8503 1.92829,-3.10021 0.27282,-0.3256 0.41958,-1.47273 0.51783,-4.04753 0.18368,-4.8137 1.47631,-6.41423 3.29918,-4.08504 l 0.6306,0.80576 0.83811,-2.20642 c 5.58734,-14.70919 12.13142,-0.35333 6.92381,15.18887 -1.66482,4.96868 -5.37525,8.02881 -7.1468,5.89423 -0.66633,-0.80287 -0.77963,-0.24846 -0.77963,3.81468 0,8.47322 0.69192,18.9688 1.62839,24.70053 0.64411,3.94233 0.37786,5.02079 -1.27994,5.18451 -2.19317,0.21659 -3.22263,-5.43167 -3.80026,-20.85042 -0.15537,-4.14734 -0.36501,-9.62377 -0.46586,-12.16983 l -0.18338,-4.6292 -1.25071,2.00964 c -4.94722,7.94917 -9.56996,12.66214 -11.83799,12.06903 -0.72537,-0.18969 -0.82883,0.0456 -1.24176,2.82352 -0.57365,3.85923 -1.75533,5.59221 -3.29222,4.8282 -1.07497,-0.53437 -1.28199,-1.76091 -0.70699,-4.18877 0.27517,-1.16189 0.45797,-2.4889 0.40621,-2.94891 -0.10893,-0.96814 0.45361,-2.06592 -6.01143,11.73118 -11.32968,24.17877 -21.332078,35.44815 -28.97885,32.6495 z m 60.78548,-61.24541 c 1.69228,-3.33383 3.07991,-13.17843 2.07996,-14.75641 -0.90481,-1.42786 -3.73883,8.66389 -3.78422,13.47536 -0.032,3.39384 0.44846,3.755 1.70426,1.28105 z M 9.7544833,232.21909 c -19.2213247,-4.65357 -21.6628743,-38.39158 -4.6597661,-64.38994 2.5897008,-3.95975 2.59338,-4.00978 0.2155103,-2.93079 -8.674947,3.93635 -18.4644695,-4.82187 -18.4789875,-16.53227 -0.03294,-26.56697 14.08517957,-44.76534 28.910172,-37.26546 6.84122,3.46093 8.239918,22.54217 1.519748,20.73262 -1.536085,-0.41362 -1.758999,-1.04973 -1.947809,-5.55825 -0.290598,-6.93908 -0.577643,-6.98947 -3.767983,-0.66146 -4.6414915,9.20635 -6.5005342,16.48904 -6.5648781,25.71749 -0.037625,5.39641 -0.2076702,5.21028 3.4522255,3.77868 5.5877776,-2.18572 7.8643446,-2.26844 10.4649966,-0.38029 6.700637,4.86489 6.757758,12.87049 0.190606,26.71378 -6.525217,13.75489 -10.6184747,33.99556 -8.691741,42.97961 1.299089,6.05744 11.803331,-2.17322 17.711582,-13.87802 7.146116,-14.15713 9.92542,-26.74426 9.902421,-44.84687 l -0.01294,-10.18646 -1.258847,-2.73458 c -4.520613,-9.82007 -8.901728,-23.25936 -8.901728,-27.30649 0,-5.61187 8.673553,-10.38698 14.196252,-7.81556 1.821691,0.84819 2.260535,1.64999 4.959899,9.06207 5.225608,14.34881 8.458661,21.5857 9.146283,20.4731 0.212863,-0.34442 1.436926,-9.05247 1.879994,-13.37437 1.475825,-14.39593 -1.30228,-28.42774 -6.14251,-31.02494 -5.275016,-2.830501 -1.476174,-5.134804 4.23776,-2.57054 8.10664,3.63804 9.737645,20.59147 4.682946,48.67672 l -0.904759,5.02709 0.521122,0.89637 c 2.963649,5.09769 13.562079,15.39202 14.68435,14.26301 2.067406,-2.07982 2.663828,-20.22713 0.90257,-27.46251 -2.815326,-11.56557 -1.899605,-23.0366 2.19124,-27.44915 0.788478,-0.85048 1.228321,-1.59809 1.357482,-2.30733 0.709629,-3.89665 6.300357,-6.66909 11.182708,-5.5455 1.132929,0.26073 2.203009,0.4483 2.377954,0.41682 0.515864,-0.0928 10.215754,-5.30091 10.613464,-5.69862 0.30888,-0.30888 0.18178,-1.379595 -0.83996,-7.076019 -1.46602,-8.173388 -2.67261,-16.654125 -3.22141,-22.642186 -0.254033,-2.771823 0.163427,-2.769675 -8.213663,-0.04227 -18.283942,5.952871 -22.701881,8.921743 -25.649826,17.236782 -2.036707,5.744781 -6.052558,3.843999 -4.890483,-2.314764 1.81179,-9.602116 14.904052,-17.976433 36.674161,-23.45821 1.454241,-0.366182 1.562812,-0.516388 1.93059,-2.670952 1.661801,-9.735371 10.833181,-12.826427 14.827311,-4.997289 0.6747,1.322523 0.74962,1.325779 3.30792,0.143774 12.07808,-5.580418 24.45685,-16.743483 24.48279,-22.078376 0.0145,-2.971443 2.43992,-4.577322 3.58091,-2.370887 3.93334,7.606232 -6.40286,19.730385 -25.20118,29.560474 -3.93624,2.058357 -3.59073,1.375129 -2.99178,5.915977 0.27626,2.094366 0.64081,5.236688 0.81011,6.982938 1.34966,13.920674 6.04433,35.741298 10.90108,50.667708 2.12299,6.52465 7.57575,20.94501 8.13954,21.5258 1.79024,1.84424 3.68949,-29.4815 2.24351,-37.00392 -4.68011,-24.347341 -2.71176,-32.543755 7.81529,-32.543755 6.12745,0 6.84672,1.359186 8.47089,16.007291 1.41283,12.741954 4.26553,24.707134 7.79144,32.679834 3.4233,7.74068 7.09802,-26.373217 4.27552,-39.691292 -3.30628,-15.600804 -2.85329,-28.721312 1.21647,-35.233931 5.34151,-8.54772 20.76632,-9.026167 24.42309,-0.757556 1.95563,4.42202 2.02009,12.933806 0.10301,13.602103 -2.02252,0.705053 -2.30303,0.310401 -4.39658,-6.185615 -1.72896,-5.36471 -1.93102,-5.58511 -3.03201,-3.307291 -5.09025,10.53108 0.16442,40.465187 9.23531,52.610462 0.78925,1.05675 0.89974,0.9833 2.31885,-1.5414 3.89509,-6.929677 6.70619,-21.033402 6.74028,-33.817027 0.006,-2.166599 1.79512,-3.5166 3.02754,-2.284179 1.36556,1.365559 0.12292,21.830569 -1.87049,30.805059 -2.92856,13.184587 -6.78318,17.500447 -15.30349,17.134667 -5.88733,-0.25274 -10.83983,-3.39944 -14.79089,-9.39777 -1.67452,-2.54217 -1.64668,-2.61269 -1.8253,4.62307 -0.4303,17.43066 -3.71056,24.55491 -11.88882,25.82079 -6.07281,0.93998 -12.48707,-2.22675 -15.55385,-7.67898 -1.34641,-2.39368 -1.43474,-2.16572 -1.6196,4.18013 -0.54841,18.8247 -3.20493,23.95551 -12.37918,23.90914 -11.31695,-0.0572 -16.74468,-9.23718 -25.15051,-42.53738 -2.46935,-9.78248 -1.81772,-9.02597 -5.83294,-6.77168 -4.400661,2.47068 -4.210461,2.17811 -2.745573,4.22329 7.443743,10.39244 9.902823,32.99071 4.646633,42.70132 -3.888051,7.18304 -12.660308,8.22546 -19.153097,2.276 -0.958672,-0.87845 -1.795385,-1.59718 -1.859362,-1.59718 -0.06398,0 -0.192969,1.94345 -0.286649,4.31878 -0.777013,19.70164 -12.577579,28.09044 -26.257159,18.66571 -2.32178,-1.59962 -2.369156,-1.59796 -2.855073,0.1004 -2.489129,8.69994 -2.864871,19.28133 -0.829133,23.34948 1.069518,2.1373 1.137706,2.76768 0.374124,3.45871 -1.60437,1.45194 -4.064831,-0.0493 -5.259706,-3.20913 -1.98299,-5.24403 -1.795608,-8.88014 1.192488,-23.14003 0.973972,-4.64802 1.171884,-6.00098 0.942808,-6.44521 -0.538182,-1.04364 -5.451113,-7.63379 -5.717998,-7.67005 -0.16526,-0.0225 -0.329071,2.19882 -0.436369,5.91717 -0.981855,34.02549 -17.865797,64.98773 -33.3889207,61.22951 z M 97.664069,150.00885 c 3.589081,-8.37298 1.716176,-26.66749 -3.521873,-34.40164 -2.420348,-3.57372 -5.313776,-3.37702 -4.306564,0.29277 0.429167,1.56367 0.841286,4.38247 1.76831,12.09481 1.072121,8.91949 2.458701,16.0647 3.927842,20.24063 1.2041,3.42257 1.367228,3.55824 2.132285,1.77343 z m 62.032051,36.62826 c -3.63466,-2.28518 -3.58351,-19.89711 0.0661,-22.76792 4.18954,-3.29549 5.91704,9.10766 1.95515,14.03769 -0.57401,0.71429 -0.79391,1.26921 -0.79131,1.99688 0.0159,4.42468 2.07937,2.06103 4.8949,-5.60689 0.69462,-1.89177 1.5435,-4.02741 1.88639,-4.74587 0.56206,-1.17768 0.62344,-1.66739 0.62344,-4.97407 0,-4.84197 0.61922,-6.06846 2.64102,-5.231 0.62095,0.2572 0.86755,0.23356 1.43378,-0.13744 0.97676,-0.64 1.85192,-0.31885 2.77086,1.01678 2.47071,3.59105 3.99197,1.59719 4.02141,-5.27072 0.0105,-2.4586 0.11407,-6.73236 0.23005,-9.49726 0.11599,-2.76489 0.12159,-5.12597 0.0124,-5.24683 -0.34605,-0.38321 -7.66936,5.36586 -12.36825,9.70954 -2.36516,2.18636 -2.90682,2.37604 -3.91272,1.37015 -2.13784,-2.13784 2.01626,-6.70313 13.95576,-15.33711 3.28199,-2.37335 2.84675,-1.16546 3.53021,-9.79728 0.5512,-6.96147 0.96805,-8.02323 2.86652,-7.30143 1.28627,0.48904 1.37382,1.13735 0.90719,6.71822 -0.49561,5.92743 -0.55099,5.78241 1.64786,4.31469 13.04386,-8.70666 17.60242,-10.30263 19.37127,-6.78197 1.40858,2.80361 -0.45316,5.53016 -2.53061,3.70613 -1.11572,-0.97961 -0.9897,-1.01604 -5.47263,1.58234 -9.1625,5.31076 -13.66371,8.30243 -13.84523,9.20205 -0.41938,2.07859 -0.78174,21.30882 -0.48965,25.98546 0.51666,8.27211 2.16006,15.53678 3.45862,15.28891 1.89052,-0.36087 7.57336,-19.33148 8.50324,-28.38579 0.49619,-4.83142 2.14958,-6.57096 3.59283,-3.78003 1.87967,3.6349 -5.19857,30.98086 -9.19821,35.53619 -4.42228,5.0367 -8.13973,-0.3688 -9.89298,-14.38523 -0.17125,-1.36905 -0.1994,-1.40882 -0.87621,-1.23789 -1.83865,0.46433 -2.30123,0.43196 -3.5772,-0.25035 -0.70973,-0.37952 -1.333,-0.64746 -1.38503,-0.59543 -0.2549,0.2549 -0.68513,4.68043 -0.85181,8.76214 -0.24908,6.09912 -2.5755,8.60155 -4.07035,4.37828 -0.18058,-0.51019 -0.17339,-0.52122 -1.73464,2.66087 -2.35241,4.79463 -4.95617,6.58322 -7.37224,5.06419 z M 143.79592,69.374565 c -4.88087,-0.960197 -6.71291,-4.205269 -3.93973,-6.978441 3.31127,-3.311279 9.1558,-2.402317 11.29989,1.757401 1.54251,2.992591 -2.84981,6.108345 -7.36016,5.22104 z"
         id="path13" /><path
         style="fill:#a09f9f"
         d="m 88.29728,251.26394 c -10.321031,-3.7774 -5.94868,-25.32764 10.907703,-53.76137 1.614027,-2.72258 1.623187,-2.86281 0.160538,-2.45667 -7.121935,1.97758 -9.168278,-4.46837 -4.487141,-14.13444 7.28647,-15.04582 15.98307,-19.83501 15.85489,-8.73125 -0.0595,5.15236 -2.85961,13.09687 -4.61614,13.09687 -2.08474,0 -2.45437,-1.76622 -1.08427,-5.18102 3.76586,-9.38589 2.25448,-11.17573 -2.93129,-3.47135 -6.711766,9.97154 -7.714728,14.66282 -2.870364,13.42594 3.930594,-1.00357 5.770374,-0.48603 6.378054,1.79418 0.47793,1.79334 0.058,2.78447 -4.33552,10.23329 -15.636049,26.50938 -19.643672,48.03451 -8.216884,44.13325 5.611474,-1.91584 13.094214,-13.17009 23.274234,-35.00512 3.81553,-8.1839 6.22932,-13.05255 6.66349,-13.44034 l 0.68077,-0.60805 -0.22799,-4.28674 c -0.28474,-5.35342 -0.24145,-5.94959 0.48834,-6.72642 1.3133,-1.39794 2.80186,-0.16083 3.04599,2.53146 0.19633,2.1652 0.31843,2.08526 1.65556,-1.08397 4.12119,-9.76793 6.1657,-12.4086 7.68188,-9.92188 0.77281,1.2675 0.69562,1.60389 -1.29354,5.6369 -4.81227,9.75691 -7.643,17.65309 -6.46681,18.03885 1.11821,0.36675 6.28383,-6.27554 10.5419,-13.55544 0.85116,-1.4552 1.71889,-2.8503 1.92829,-3.10021 0.27282,-0.3256 0.41958,-1.47273 0.51783,-4.04753 0.18368,-4.8137 1.47631,-6.41423 3.29918,-4.08504 l 0.6306,0.80576 0.83811,-2.20642 c 5.58734,-14.70919 12.13142,-0.35333 6.92381,15.18887 -1.66482,4.96868 -5.37525,8.02881 -7.1468,5.89423 -0.66633,-0.80287 -0.77963,-0.24846 -0.77963,3.81468 0,8.47322 0.69192,18.9688 1.62839,24.70053 0.64411,3.94233 0.37786,5.02079 -1.27994,5.18451 -2.19317,0.21659 -3.22263,-5.43167 -3.80026,-20.85042 -0.15537,-4.14734 -0.36501,-9.62377 -0.46586,-12.16983 l -0.18338,-4.6292 -1.25071,2.00964 c -4.94722,7.94917 -9.56996,12.66214 -11.83799,12.06903 -0.72537,-0.18969 -0.82883,0.0456 -1.24176,2.82352 -0.57365,3.85923 -1.75533,5.59221 -3.29222,4.8282 -1.07497,-0.53437 -1.28199,-1.76091 -0.70699,-4.18877 0.27517,-1.16189 0.45797,-2.4889 0.40621,-2.94891 -0.10893,-0.96814 0.45361,-2.06592 -6.01143,11.73118 -11.32968,24.17877 -21.332078,35.44815 -28.97885,32.6495 z m 60.78548,-61.24541 c 1.69228,-3.33383 3.07991,-13.17843 2.07996,-14.75641 -0.90481,-1.42786 -3.73883,8.66389 -3.78422,13.47536 -0.032,3.39384 0.44846,3.755 1.70426,1.28105 z M 9.811113,232.10925 c -19.0527919,-4.84079 -21.472874,-38.52104 -4.6013535,-64.03698 2.9293073,-4.43019 2.9284056,-4.43658 -0.4509822,-3.19531 -5.09328718,1.87079 -13.5218303,-1.99083 -16.1173403,-7.38432 -5.662041,-11.76577 3.2415403,-41.72792 13.9134133,-46.82113 6.6203635,-3.15961 15.5617007,-0.199 17.4497977,5.77788 2.795709,8.84998 0.966377,17.18092 -3.289391,14.98017 -0.932248,-0.48208 -0.973596,-0.65765 -1.169272,-4.96481 -0.276108,-6.07761 -0.797583,-7.14104 -2.266264,-4.62152 -5.460776,9.36796 -8.1065047,18.37367 -8.3754366,28.50885 -0.1783713,6.72225 -0.3262317,6.49791 3.3151189,5.0298 6.4968837,-2.61939 8.8044477,-2.43171 12.1346287,0.98693 5.061502,5.19597 4.680515,11.81811 -1.442441,25.07181 -5.792066,12.53747 -8.26216,22.63243 -8.9340899,36.5125 -0.4218001,8.71314 0.5527049,9.86066 6.0145509,7.08237 12.621156,-6.42002 22.2386,-31.90626 22.241761,-58.9407 0.0013,-11.48813 0.303006,-9.7209 -2.935655,-17.19792 -9.301738,-21.47467 -9.222213,-28.6983 0.344114,-31.25751 5.631784,-1.50663 7.971257,0.0276 10.344246,6.78356 5.196107,14.79356 10.425546,26.42341 10.425546,23.18559 0,-0.0538 0.353813,-2.58591 0.786252,-5.62699 3.01631,-21.21194 0.868881,-35.89671 -5.812354,-39.74665 -4.541263,-2.616819 0.181135,-4.081878 5.153197,-1.59871 7.602858,3.79705 9.138174,24.51006 3.72071,50.19624 -0.72933,3.45802 -0.702687,3.52766 3.23132,8.44559 3.367838,4.21016 10.023587,10.12409 11.394016,10.12409 0.527839,0 1.031,-1.2594 1.902732,-4.7625 0.923359,-3.71056 0.487825,-18.5322 -0.688068,-23.41562 -2.798226,-11.62088 -1.835981,-22.55857 2.381232,-27.06711 0.723972,-0.77399 1.214297,-1.54718 1.214297,-1.91481 0,-3.57737 6.438176,-6.89678 11.073441,-5.70928 2.596857,0.66529 1.723366,0.99202 11.309591,-4.23043 2.46257,-1.34157 2.3868,-0.87429 1.18168,-7.287359 -1.16178,-6.182454 -2.06023,-12.258812 -2.92828,-19.804552 -0.649452,-5.645538 -0.768533,-6.180334 -1.403376,-6.302593 -0.617812,-0.11898 -16.006244,4.913616 -20.072393,6.564427 -6.390261,2.594373 -11.543539,7.700998 -13.317572,13.197005 -1.253594,3.883672 -4.299419,4.140876 -4.571023,0.385998 -0.382665,-5.290289 3.268967,-11.055268 9.847681,-15.546932 4.506466,-3.076821 11.576627,-5.877574 26.511865,-10.502333 1.992806,-0.617081 2.046301,-0.684989 2.469143,-3.134397 1.672835,-9.690273 10.256205,-12.196431 14.613495,-4.266824 0.61095,1.111835 0.7323,1.085983 4.97288,-1.059463 12.3092,-6.227617 23.01912,-16.27511 23.01912,-21.595353 0,-2.871276 2.49855,-4.087627 3.3585,-1.634995 2.86772,8.178908 -6.95752,19.260895 -25.84809,29.154331 l -2.77812,1.454969 0.0102,1.417559 c 0.0716,9.917125 5.76608,40.616702 10.27471,55.392562 2.41532,7.91559 8.24086,23.87585 9.73603,26.67385 2.07352,3.88032 4.30346,-27.9903 2.60519,-37.23381 -1.82256,-9.919965 -2.83889,-22.622002 -2.08961,-26.115761 0.94253,-4.394885 9.06656,-7.622899 13.4624,-5.349172 2.59977,1.344719 3.39916,3.779868 4.37176,13.317598 1.40237,13.752215 4.58188,27.372215 8.13889,34.864295 3.45251,7.27199 7.47339,-26.267842 4.68223,-39.056478 -3.36776,-15.430524 -3.01962,-29.778428 0.86994,-35.853093 5.51454,-8.61254 20.39215,-9.289194 24.24036,-1.102484 1.63023,3.468178 2.10777,11.818621 0.743,12.992545 -1.88684,1.622995 -2.52118,0.900612 -4.4345,-5.049992 -2.11349,-6.573128 -2.31613,-6.769248 -3.74297,-3.622422 -4.63217,10.21602 -0.45898,36.314608 8.06522,50.438834 2.18833,3.62598 2.42105,3.60589 4.42601,-0.38204 3.46269,-6.887415 5.46623,-16.422103 6.08791,-28.971873 0.29893,-6.034656 0.43561,-6.482291 1.97927,-6.482291 3.35601,0 0.69605,29.269696 -3.59716,39.582444 -4.90954,11.79324 -19.17137,11.37575 -26.96509,-0.78935 -2.27932,-3.55775 -2.29216,-3.52845 -2.47886,5.6569 -0.36684,18.0476 -4.45723,25.01443 -14.40618,24.53688 -5.43099,-0.26069 -9.89312,-2.88941 -12.3884,-7.29823 -1.89677,-3.35135 -1.84019,-3.48071 -2.18514,4.99529 -0.65443,16.0801 -1.57068,18.71269 -7.5615,21.72583 l -2.11667,1.06459 -2.91041,-0.10252 c -11.10454,-0.39114 -16.94952,-10.85889 -25.26815,-45.25256 -1.62824,-6.73205 -1.1659,-6.36086 -5.16502,-4.14661 -4.80926,2.6628 -4.646909,2.42319 -3.086153,4.55478 7.384503,10.08529 9.875673,31.52485 4.899343,42.16479 -3.437367,7.34947 -12.512841,8.58599 -19.067369,2.5979 -2.427977,-2.21815 -2.345408,-2.32363 -2.536122,3.23991 -0.317709,9.26822 -1.538093,13.28074 -5.166403,16.98671 -5.782045,5.9058 -13.67106,6.32275 -20.81013,1.09985 -2.38661,-1.74603 -2.514381,-1.70493 -3.236032,1.04088 -2.390893,9.09709 -2.577466,18.82686 -0.442316,23.0667 1.005786,1.99722 0.997178,2.60948 -0.04335,3.08358 -3.405424,1.55161 -6.200423,-4.23809 -5.856127,-12.13068 0.139418,-3.19601 0.466943,-5.06482 3.097762,-17.67544 0.51231,-2.45572 0.529192,-2.78416 0.169993,-3.3073 -4.626045,-6.73729 -6.257635,-8.47552 -6.257635,-6.66664 0,36.24189 -17.19356,70.3899 -33.371784,66.27946 z m 87.72175,-81.29415 c 4.569597,-7.02631 1.460011,-31.96106 -4.624285,-37.08066 -1.316171,-1.10748 -3.918373,-0.58674 -3.603712,0.72116 0.731966,3.04244 1.294389,6.38748 1.76484,10.49648 1.988473,17.36769 4.764257,28.47529 6.463157,25.86302 z m 62.163257,35.82201 c -3.63466,-2.28518 -3.58351,-19.89711 0.0661,-22.76792 4.18954,-3.29549 5.91704,9.10766 1.95515,14.03769 -0.57401,0.71429 -0.79391,1.26921 -0.79131,1.99688 0.0159,4.42468 2.07937,2.06103 4.8949,-5.60689 0.69462,-1.89177 1.5435,-4.02741 1.88639,-4.74587 0.56206,-1.17768 0.62344,-1.66739 0.62344,-4.97407 0,-4.84197 0.61922,-6.06846 2.64102,-5.231 0.62095,0.2572 0.86755,0.23356 1.43378,-0.13744 0.97676,-0.64 1.85192,-0.31885 2.77086,1.01678 2.47071,3.59105 3.99197,1.59719 4.02141,-5.27072 0.0105,-2.4586 0.11407,-6.73236 0.23005,-9.49726 0.11599,-2.76489 0.12159,-5.12597 0.0124,-5.24683 -0.34605,-0.38321 -7.66936,5.36586 -12.36825,9.70954 -2.36516,2.18636 -2.90682,2.37604 -3.91272,1.37015 -2.13784,-2.13784 2.01626,-6.70313 13.95576,-15.33711 3.28199,-2.37335 2.84675,-1.16546 3.53021,-9.79728 0.5512,-6.96147 0.96805,-8.02323 2.86652,-7.30143 1.28627,0.48904 1.37382,1.13735 0.90719,6.71822 -0.49561,5.92743 -0.55099,5.78241 1.64786,4.31469 13.04386,-8.70666 17.60242,-10.30263 19.37127,-6.78197 1.40858,2.80361 -0.45316,5.53016 -2.53061,3.70613 -1.11572,-0.97961 -0.9897,-1.01604 -5.47263,1.58234 -9.1625,5.31076 -13.66371,8.30243 -13.84523,9.20205 -0.41938,2.07859 -0.78174,21.30882 -0.48965,25.98546 0.51666,8.27211 2.16006,15.53678 3.45862,15.28891 1.89052,-0.36087 7.57336,-19.33148 8.50324,-28.38579 0.49619,-4.83142 2.14958,-6.57096 3.59283,-3.78003 1.87967,3.6349 -5.19857,30.98086 -9.19821,35.53619 -4.42228,5.0367 -8.13973,-0.3688 -9.89298,-14.38523 -0.17125,-1.36905 -0.1994,-1.40882 -0.87621,-1.23789 -1.83865,0.46433 -2.30123,0.43196 -3.5772,-0.25035 -0.70973,-0.37952 -1.333,-0.64746 -1.38503,-0.59543 -0.2549,0.2549 -0.68513,4.68043 -0.85181,8.76214 -0.24908,6.09912 -2.5755,8.60155 -4.07035,4.37828 -0.18058,-0.51019 -0.17339,-0.52122 -1.73464,2.66087 -2.35241,4.79463 -4.95617,6.58322 -7.37224,5.06419 z M 143.06311,69.01948 c -5.15336,-1.629791 -5.81055,-5.565234 -1.28674,-7.705338 3.43648,-1.625715 6.95028,-0.563384 9.18366,2.776503 1.99019,2.976217 -3.41121,6.34748 -7.89692,4.928835 z"
         id="path12" /><path
         style="fill:#db5ca0"
         d="m 89.050587,251.17052 c -10.585456,-2.52426 -6.688997,-24.17712 9.279497,-51.56674 3.197616,-5.48464 3.166316,-5.27085 0.703576,-4.80617 -7.431827,1.40229 -8.602357,-5.40335 -2.75038,-15.99112 7.39212,-13.37429 14.09598,-16.56392 14.10231,-6.70973 0.003,4.87071 -2.72989,12.91574 -4.38767,12.91574 -1.43041,0 -1.8216,-2.22751 -0.79775,-4.5426 1.95459,-4.41967 2.77986,-9.48032 1.54602,-9.48032 -1.23597,0 -6.34932,7.01237 -8.922218,12.23578 -3.307942,6.71567 -2.925264,8.29505 1.715176,7.07881 4.322492,-1.13291 6.036932,-0.22824 5.765702,3.04241 -0.11984,1.44513 -0.0556,1.31853 -4.54491,8.96172 -11.691259,19.90489 -16.701044,35.79598 -13.421021,42.5716 1.695366,3.50216 5.779136,2.81181 10.170001,-1.71921 6.99935,-7.22276 10.18575,-12.59524 20.04519,-33.79753 2.67065,-5.74313 5.20113,-10.83543 5.62328,-11.31623 l 0.76754,-0.87418 -0.19221,-5.12622 c -0.18707,-4.989 -0.1773,-5.14114 0.36482,-5.68325 1.26807,-1.26808 2.30259,-0.19362 2.597,2.69727 0.29171,2.86435 0.45494,2.70614 2.85297,-2.76514 3.68851,-8.41561 4.84313,-10.06918 6.18373,-8.85596 1.07528,0.97312 0.93062,1.61217 -1.53461,6.7793 -2.18209,4.57365 -4.59072,10.32207 -5.97707,14.26483 -0.66628,1.89492 -0.49952,3.19767 0.40934,3.19767 1.48704,0 5.48997,-5.08498 10.48466,-13.31882 l 2.73892,-4.51516 v -3.1091 c 0,-4.66877 2.21083,-6.92153 3.04874,-3.10657 0.26171,1.19159 0.52861,0.9306 1.31329,-1.28421 3.74449,-10.56908 8.96462,-8.58437 8.5248,3.24115 -0.41316,11.10855 -4.67592,19.10416 -8.6692,16.26069 -0.44468,-0.31664 -0.87056,-0.51366 -0.94641,-0.43781 -0.74395,0.74395 0.50989,24.6268 1.58892,30.26517 0.54438,2.84461 -0.0167,4.3274 -1.49683,3.9559 -1.84683,-0.46353 -2.97687,-10.05678 -3.28263,-27.86735 -0.19636,-11.4386 -0.0821,-11.11377 -2.53433,-7.2045 -4.76284,7.59278 -8.39711,11.33889 -11.10277,11.44446 -1.30306,0.0508 -1.3887,0.20031 -1.76036,3.07224 -0.36384,2.81157 -1.19578,4.60906 -2.18628,4.7237 -1.38932,0.1608 -1.9002,-1.52894 -1.18448,-3.91771 2.50428,-8.35824 0.63561,-6.06494 -5.11467,6.27692 -11.98298,25.71915 -21.225013,36.86903 -29.019683,35.01027 z m 59.800083,-60.13875 c 1.9942,-2.61754 3.78295,-13.76369 2.57195,-16.02646 -0.67241,-1.25641 -2.00895,1.35131 -3.20448,6.25225 -1.90137,7.79442 -1.58489,12.68476 0.63253,9.77421 z M 9.811113,232.10925 c -19.0527919,-4.84079 -21.472874,-38.52104 -4.6013535,-64.03698 2.9293073,-4.43019 2.9284056,-4.43658 -0.4509822,-3.19531 -5.09328718,1.87079 -13.5218303,-1.99083 -16.1173403,-7.38432 -5.662041,-11.76577 3.2415403,-41.72792 13.9134133,-46.82113 6.6203635,-3.15961 15.5617007,-0.199 17.4497977,5.77788 2.795709,8.84998 0.966377,17.18092 -3.289391,14.98017 -0.932248,-0.48208 -0.973596,-0.65765 -1.169272,-4.96481 -0.276108,-6.07761 -0.797583,-7.14104 -2.266264,-4.62152 -5.460776,9.36796 -8.1065047,18.37367 -8.3754366,28.50885 -0.1783713,6.72225 -0.3262317,6.49791 3.3151189,5.0298 6.4968837,-2.61939 8.8044477,-2.43171 12.1346287,0.98693 5.061502,5.19597 4.680515,11.81811 -1.442441,25.07181 -5.792066,12.53747 -8.26216,22.63243 -8.9340899,36.5125 -0.4218001,8.71314 0.5527049,9.86066 6.0145509,7.08237 12.621156,-6.42002 22.2386,-31.90626 22.241761,-58.9407 0.0013,-11.48813 0.303006,-9.7209 -2.935655,-17.19792 -9.301738,-21.47467 -9.222213,-28.6983 0.344114,-31.25751 5.631784,-1.50663 7.971257,0.0276 10.344246,6.78356 5.196107,14.79356 10.425546,26.42341 10.425546,23.18559 0,-0.0538 0.353813,-2.58591 0.786252,-5.62699 3.01631,-21.21194 0.868881,-35.89671 -5.812354,-39.74665 -4.541263,-2.616819 0.181135,-4.081878 5.153197,-1.59871 7.602858,3.79705 9.138174,24.51006 3.72071,50.19624 -0.72933,3.45802 -0.702687,3.52766 3.23132,8.44559 3.367838,4.21016 10.023587,10.12409 11.394016,10.12409 0.527839,0 1.031,-1.2594 1.902732,-4.7625 0.923359,-3.71056 0.487825,-18.5322 -0.688068,-23.41562 -2.798226,-11.62088 -1.835981,-22.55857 2.381232,-27.06711 0.723972,-0.77399 1.214297,-1.54718 1.214297,-1.91481 0,-3.57737 6.438176,-6.89678 11.073441,-5.70928 2.596857,0.66529 1.723366,0.99202 11.309591,-4.23043 2.46257,-1.34157 2.3868,-0.87429 1.18168,-7.287359 -1.16178,-6.182454 -2.06023,-12.258812 -2.92828,-19.804552 -0.649452,-5.645538 -0.768533,-6.180334 -1.403376,-6.302593 -0.617812,-0.11898 -16.006244,4.913616 -20.072393,6.564427 -6.390261,2.594373 -11.543539,7.700998 -13.317572,13.197005 -1.253594,3.883672 -4.299419,4.140876 -4.571023,0.385998 -0.382665,-5.290289 3.268967,-11.055268 9.847681,-15.546932 4.506466,-3.076821 11.576627,-5.877574 26.511865,-10.502333 1.992806,-0.617081 2.046301,-0.684989 2.469143,-3.134397 1.672835,-9.690273 10.256205,-12.196431 14.613495,-4.266824 0.61095,1.111835 0.7323,1.085983 4.97288,-1.059463 12.3092,-6.227617 23.01912,-16.27511 23.01912,-21.595353 0,-2.871276 2.49855,-4.087627 3.3585,-1.634995 2.86772,8.178908 -6.95752,19.260895 -25.84809,29.154331 l -2.77812,1.454969 0.0102,1.417559 c 0.0716,9.917125 5.76608,40.616702 10.27471,55.392562 2.41532,7.91559 8.24086,23.87585 9.73603,26.67385 2.07352,3.88032 4.30346,-27.9903 2.60519,-37.23381 -1.82256,-9.919965 -2.83889,-22.622002 -2.08961,-26.115761 0.94253,-4.394885 9.06656,-7.622899 13.4624,-5.349172 2.59977,1.344719 3.39916,3.779868 4.37176,13.317598 1.40237,13.752215 4.58188,27.372215 8.13889,34.864295 3.45251,7.27199 7.47339,-26.267842 4.68223,-39.056478 -3.36776,-15.430524 -3.01962,-29.778428 0.86994,-35.853093 5.51454,-8.61254 20.39215,-9.289194 24.24036,-1.102484 1.63023,3.468178 2.10777,11.818621 0.743,12.992545 -1.88684,1.622995 -2.52118,0.900612 -4.4345,-5.049992 -2.11349,-6.573128 -2.31613,-6.769248 -3.74297,-3.622422 -4.63217,10.21602 -0.45898,36.314608 8.06522,50.438834 2.18833,3.62598 2.42105,3.60589 4.42601,-0.38204 3.46269,-6.887415 5.46623,-16.422103 6.08791,-28.971873 0.29893,-6.034656 0.43561,-6.482291 1.97927,-6.482291 3.35601,0 0.69605,29.269696 -3.59716,39.582444 -4.90954,11.79324 -19.17137,11.37575 -26.96509,-0.78935 -2.27932,-3.55775 -2.29216,-3.52845 -2.47886,5.6569 -0.36684,18.0476 -4.45723,25.01443 -14.40618,24.53688 -5.43099,-0.26069 -9.89312,-2.88941 -12.3884,-7.29823 -1.89677,-3.35135 -1.84019,-3.48071 -2.18514,4.99529 -0.65443,16.0801 -1.57068,18.71269 -7.5615,21.72583 l -2.11667,1.06459 -2.91041,-0.10252 c -11.10454,-0.39114 -16.94952,-10.85889 -25.26815,-45.25256 -1.62824,-6.73205 -1.1659,-6.36086 -5.16502,-4.14661 -4.80926,2.6628 -4.646909,2.42319 -3.086153,4.55478 7.384503,10.08529 9.875673,31.52485 4.899343,42.16479 -3.437367,7.34947 -12.512841,8.58599 -19.067369,2.5979 -2.427977,-2.21815 -2.345408,-2.32363 -2.536122,3.23991 -0.317709,9.26822 -1.538093,13.28074 -5.166403,16.98671 -5.782045,5.9058 -13.67106,6.32275 -20.81013,1.09985 -2.38661,-1.74603 -2.514381,-1.70493 -3.236032,1.04088 -2.390893,9.09709 -2.577466,18.82686 -0.442316,23.0667 1.005786,1.99722 0.997178,2.60948 -0.04335,3.08358 -3.405424,1.55161 -6.200423,-4.23809 -5.856127,-12.13068 0.139418,-3.19601 0.466943,-5.06482 3.097762,-17.67544 0.51231,-2.45572 0.529192,-2.78416 0.169993,-3.3073 -4.626045,-6.73729 -6.257635,-8.47552 -6.257635,-6.66664 0,36.24189 -17.19356,70.3899 -33.371784,66.27946 z m 87.72175,-81.29415 c 4.569597,-7.02631 1.460011,-31.96106 -4.624285,-37.08066 -1.316171,-1.10748 -3.918373,-0.58674 -3.603712,0.72116 0.731966,3.04244 1.294389,6.38748 1.76484,10.49648 1.988473,17.36769 4.764257,28.47529 6.463157,25.86302 z m 62.452257,35.55656 c -1.87976,-1.14632 -2.55813,-3.44184 -2.539,-8.59168 0.0291,-7.82408 0.68886,-11.82463 2.20615,-13.37655 3.98172,-4.0726 5.583,7.82086 1.79816,13.35575 -0.95083,1.39049 -1.05114,1.68265 -0.90054,2.62311 0.62415,3.89792 2.5318,2.01381 5.26654,-5.20155 0.84611,-2.23237 1.83551,-4.71371 2.19867,-5.51407 0.60906,-1.3423 0.65563,-1.7221 0.60013,-4.8948 -0.0806,-4.60948 0.69272,-6.25212 2.3853,-5.06659 0.55655,0.38983 0.66417,0.38135 1.46833,-0.11565 1.09569,-0.67717 1.54967,-0.46161 2.85535,1.3558 1.21497,1.69115 1.96937,1.71624 3.19405,0.10623 l 0.81725,-1.07437 0.30374,-10.03812 c 0.16706,-5.52097 0.21041,-10.13215 0.0963,-10.24706 -0.39816,-0.40107 -7.07518,4.73103 -11.80164,9.071 -3.6334,3.33628 -5.15937,3.60236 -5.15937,0.89962 0,-1.81713 7.32104,-8.50554 15.49575,-14.15671 2.2474,-1.55363 2.06111,-1.02254 2.49541,-7.11435 0.58327,-8.18148 0.84943,-9.26042 2.28437,-9.26042 1.55444,0 1.64761,1.40504 0.70611,10.64948 -0.20602,2.02282 -0.0905,2.0048 4.06597,-0.6344 13.15771,-8.35463 15.90044,-9.23342 17.45211,-5.59181 1.06671,2.50346 -0.72786,4.69829 -2.33252,2.85277 -0.93253,-1.0725 -1.63826,-0.76644 -10.26929,4.45364 -10.44073,6.3146 -9.40474,4.73207 -9.80146,14.97233 -0.72414,18.69223 0.75903,32.77678 3.50729,33.30605 1.98365,0.38202 7.87529,-18.12473 8.93545,-28.06792 0.44417,-4.16584 0.4997,-4.38898 1.20755,-4.85278 3.87005,-2.53575 1.91185,12.2131 -3.73433,28.12647 -5.02835,14.17205 -10.16309,12.38235 -12.57929,-4.38448 -0.6587,-4.57092 -0.40177,-4.12745 -2.07437,-3.58037 l -1.36835,0.44756 -1.56838,-0.80888 c -0.86262,-0.44488 -1.62368,-0.71942 -1.69125,-0.61009 -0.32558,0.52679 -0.7251,4.30867 -0.9154,8.66515 -0.28187,6.45284 -2.19665,8.73816 -3.60459,4.30213 -0.27181,-0.85638 -0.50667,-0.59172 -1.56995,1.76914 -2.5746,5.71652 -4.97203,7.72551 -7.43028,6.22642 z M 143.06311,69.01948 c -5.15336,-1.629791 -5.81055,-5.565234 -1.28674,-7.705338 3.43648,-1.625715 6.95028,-0.563384 9.18366,2.776503 1.99019,2.976217 -3.41121,6.34748 -7.89692,4.928835 z"
         id="path11" /><path
         style="fill:#e7268d"
         d="m 89.050587,251.17052 c -10.585456,-2.52426 -6.688997,-24.17712 9.279497,-51.56674 3.197616,-5.48464 3.166316,-5.27085 0.703576,-4.80617 -7.431827,1.40229 -8.602357,-5.40335 -2.75038,-15.99112 7.39212,-13.37429 14.09598,-16.56392 14.10231,-6.70973 0.003,4.87071 -2.72989,12.91574 -4.38767,12.91574 -1.43041,0 -1.8216,-2.22751 -0.79775,-4.5426 1.95459,-4.41967 2.77986,-9.48032 1.54602,-9.48032 -1.23597,0 -6.34932,7.01237 -8.922218,12.23578 -3.307942,6.71567 -2.925264,8.29505 1.715176,7.07881 4.322492,-1.13291 6.036932,-0.22824 5.765702,3.04241 -0.11984,1.44513 -0.0556,1.31853 -4.54491,8.96172 -11.691259,19.90489 -16.701044,35.79598 -13.421021,42.5716 1.695366,3.50216 5.779136,2.81181 10.170001,-1.71921 6.99935,-7.22276 10.18575,-12.59524 20.04519,-33.79753 2.67065,-5.74313 5.20113,-10.83543 5.62328,-11.31623 l 0.76754,-0.87418 -0.19221,-5.12622 c -0.18707,-4.989 -0.1773,-5.14114 0.36482,-5.68325 1.26807,-1.26808 2.30259,-0.19362 2.597,2.69727 0.29171,2.86435 0.45494,2.70614 2.85297,-2.76514 3.68851,-8.41561 4.84313,-10.06918 6.18373,-8.85596 1.07528,0.97312 0.93062,1.61217 -1.53461,6.7793 -2.18209,4.57365 -4.59072,10.32207 -5.97707,14.26483 -0.66628,1.89492 -0.49952,3.19767 0.40934,3.19767 1.48704,0 5.48997,-5.08498 10.48466,-13.31882 l 2.73892,-4.51516 v -3.1091 c 0,-4.66877 2.21083,-6.92153 3.04874,-3.10657 0.26171,1.19159 0.52861,0.9306 1.31329,-1.28421 3.74449,-10.56908 8.96462,-8.58437 8.5248,3.24115 -0.41316,11.10855 -4.67592,19.10416 -8.6692,16.26069 -0.44468,-0.31664 -0.87056,-0.51366 -0.94641,-0.43781 -0.74395,0.74395 0.50989,24.6268 1.58892,30.26517 0.54438,2.84461 -0.0167,4.3274 -1.49683,3.9559 -1.84683,-0.46353 -2.97687,-10.05678 -3.28263,-27.86735 -0.19636,-11.4386 -0.0821,-11.11377 -2.53433,-7.2045 -4.76284,7.59278 -8.39711,11.33889 -11.10277,11.44446 -1.30306,0.0508 -1.3887,0.20031 -1.76036,3.07224 -0.36384,2.81157 -1.19578,4.60906 -2.18628,4.7237 -1.38932,0.1608 -1.9002,-1.52894 -1.18448,-3.91771 2.50428,-8.35824 0.63561,-6.06494 -5.11467,6.27692 -11.98298,25.71915 -21.225013,36.86903 -29.019683,35.01027 z m 59.800083,-60.13875 c 1.9942,-2.61754 3.78295,-13.76369 2.57195,-16.02646 -0.67241,-1.25641 -2.00895,1.35131 -3.20448,6.25225 -1.90137,7.79442 -1.58489,12.68476 0.63253,9.77421 z M 10.028584,231.81814 c -3.1043751,-0.73043 -7.8797899,-3.92104 -9.95390211,-6.65054 -0.58245971,-0.7665 -1.28448879,-1.6913 -1.56006459,-2.0551 -8.2673779,-10.9142 -3.9037615,-40.58882 8.3542167,-56.81255 1.8685737,-2.4731 1.3802802,-3.24305 -1.3153188,-2.074 -8.89296,3.85677 -18.1811022,-4.18163 -18.1942262,-15.74614 -0.02312,-20.37137 9.7564875,-38.60898 20.7033995,-38.60898 8.9011235,0 12.7111855,4.30961 12.7483345,14.4198 0.03349,9.11535 -4.620321,10.83008 -4.993117,1.83975 -0.314878,-7.5936 -1.092526,-7.90734 -4.238698,-1.71007 -5.0321232,9.91218 -6.7051787,16.16067 -6.943329,25.93177 -0.1653111,6.78258 -0.1627522,6.78898 2.3469334,5.87021 8.1835056,-2.99591 10.2297206,-2.88891 13.4800396,0.7049 4.65063,5.1421 4.091936,12.05037 -2.002879,24.76564 -5.228366,10.90766 -7.780359,21.13009 -8.6571457,34.67763 -0.7212343,11.14405 0.4415307,12.37039 7.7984237,8.2248 7.922234,-4.46416 15.884681,-20.57321 19.761302,-39.97964 1.099976,-5.5065 1.41797,-10.77946 1.262074,-20.92767 l -0.130457,-8.49225 -1.119978,-2.35566 c -5.555393,-11.68472 -9.727984,-25.56829 -8.760724,-29.14981 0.841678,-3.11651 5.670068,-5.99458 10.071512,-6.00336 3.984552,-0.008 4.845315,0.81606 6.898386,6.60376 0.619448,1.74625 1.807815,4.96093 2.640817,7.14375 0.833002,2.18281 1.60286,4.2664 1.710796,4.6302 0.107937,0.36381 0.639953,1.67349 1.182258,2.91042 0.542306,1.23693 1.388372,3.20146 1.880148,4.36563 2.903064,6.87234 3.40699,6.66613 4.610297,-1.88656 2.969647,-21.10721 0.659105,-36.18034 -6.052256,-39.48268 -3.212899,-1.58092 -0.717767,-2.990516 3.07431,-1.7368 9.015934,2.9808 11.125188,21.52185 5.606038,49.27897 -0.989509,4.97647 -1.073621,4.57801 1.777802,8.42189 2.442707,3.29291 5.95688,6.95018 8.553696,8.90201 1.164167,0.87502 2.551912,1.93998 3.083878,2.36658 3.694322,2.96257 5.628056,-16.81356 2.767461,-28.30257 -2.731072,-10.96881 -1.561042,-22.96079 2.610607,-26.75691 0.507029,-0.46139 0.988817,-1.16524 1.070639,-1.56412 0.455595,-2.221 0.665197,-2.6095 1.927035,-3.57179 2.803504,-2.13798 6.427363,-2.87513 9.560388,-1.94472 l 1.439777,0.42757 1.6024,-0.79174 c 10.942083,-5.40644 10.464273,-4.79772 9.037323,-11.513477 -0.97833,-4.604402 -1.52769,-7.977962 -2.13269,-13.096698 -0.215,-1.81901 -0.63275,-5.076411 -0.92834,-7.238668 -0.29559,-2.162258 -0.53744,-4.326644 -0.53744,-4.809747 0,-1.274432 -0.543778,-1.710959 -1.7784,-1.427635 -2.875726,0.659929 -18.354623,5.978814 -21.358886,7.339377 -4.840904,2.192337 -9.732675,7.424395 -11.647711,12.457964 -1.42911,3.75634 -3.531147,4.103049 -3.988174,0.657807 -0.788483,-5.94387 5.76623,-13.912024 14.933252,-18.153417 3.769971,-1.744289 7.66414,-3.149262 18.548257,-6.692005 4.964282,-1.615857 4.822743,-1.515064 5.232842,-3.726435 1.78061,-9.601585 9.80533,-12.606033 13.81404,-5.171964 1.11467,2.067116 4.45272,0.975275 11.68037,-3.820524 0.96545,-0.640613 1.82235,-1.164752 1.90421,-1.164752 0.20327,0 3.29391,-2.344295 5.86541,-4.448996 6.03953,-4.943179 9.63795,-10.002333 9.65415,-13.573134 0.007,-1.613546 1.52476,-2.571947 2.27039,-1.433966 4.4486,6.789414 -6.39454,19.339389 -25.20659,29.17441 -3.09064,1.615802 -3.70097,2.155826 -3.40247,3.010558 0.0707,0.202402 0.43029,2.927847 0.79913,6.056544 0.36884,3.128698 0.80243,6.760104 0.96353,8.069792 0.36021,2.928421 1.84126,11.809682 2.71351,16.271874 0.35557,1.819011 0.72842,3.902604 0.82856,4.630209 0.92631,6.730413 6.7068,26.506233 10.90466,37.306253 4.49295,11.55922 4.04702,10.54618 4.69878,10.67429 0.8704,0.17108 1.2275,-1.03522 2.11635,-7.14917 1.09193,-7.51087 1.34776,-26.66512 0.41907,-31.37683 -2.11731,-10.742159 -2.89427,-23.650399 -1.58863,-26.39305 1.85225,-3.890894 9.2546,-6.169322 12.84198,-3.952736 2.25662,1.394335 3.06476,3.921168 3.80441,11.895409 1.46444,15.788407 7.05625,37.570837 9.64487,37.570837 3.64824,0 6.27975,-29.37949 3.74375,-41.797161 -3.37791,-16.540132 -2.7533,-29.391719 1.73393,-35.676462 4.54009,-6.35878 16.66602,-7.656228 21.48296,-2.29863 2.95417,3.285756 4.29302,13.944363 1.88916,15.039638 -1.41788,0.64603 -1.717,0.21242 -3.37244,-4.888759 -2.28171,-7.031054 -2.76646,-7.549047 -4.2329,-4.523242 -4.72795,9.755513 -1.03302,36.268932 6.94057,49.802946 3.30626,5.61189 3.4616,5.68285 5.2171,2.38313 4.03866,-7.59122 6.00731,-16.298225 6.72198,-29.73012 0.33795,-6.351686 0.42921,-6.719199 1.63953,-6.602444 1.15932,0.111836 1.31739,1.304871 1.11519,8.417143 -0.66564,23.414401 -5.10923,36.734581 -12.80517,38.385071 -7.13291,1.52973 -13.93427,-1.77088 -18.71567,-9.08247 -2.56315,-3.91951 -2.73358,-3.72887 -2.7395,3.06435 -0.0135,15.53231 -2.47836,23.50267 -8.13232,26.29701 l -2.02251,0.99958 -3.32101,-0.0214 c -6.04286,-0.039 -10.38765,-2.58933 -13.24289,-7.77332 -1.80436,-3.27601 -2.12074,-3.01287 -2.26231,1.88161 -0.45615,15.76944 -1.22976,20.3173 -3.90879,22.97878 -6.13665,6.09645 -15.68036,3.96118 -21.06317,-4.71258 -3.65551,-5.89041 -7.55228,-17.40844 -11.9222,-35.2395 -2.22907,-9.09548 -1.61904,-8.56461 -6.65365,-5.79032 -4.256215,2.34536 -4.255849,2.34475 -2.737119,4.56279 8.837889,12.90739 10.333149,37.53327 2.744049,45.19253 -4.384208,4.42473 -11.267541,4.09161 -16.37787,-0.79263 -2.820784,-2.69598 -2.906439,-2.64179 -2.906439,1.83886 0,11.94789 -2.846787,18.46525 -9.431547,21.59234 -5.525969,2.62427 -10.618606,1.95397 -16.339575,-2.15064 -2.438262,-1.74937 -2.635616,-1.70727 -3.357376,0.71627 -2.433779,8.17217 -2.845663,20.81498 -0.772953,23.72584 1.693853,2.37879 0.381349,4.13441 -2.003626,2.68006 -3.936747,-2.40061 -4.091573,-10.97166 -0.48637,-26.92498 1.208551,-5.34794 1.243838,-5.06004 -0.984103,-8.02929 -1.037303,-1.38245 -2.411361,-3.31721 -3.053463,-4.29948 -0.78179,-1.19595 -1.338033,-1.78593 -1.683806,-1.78593 -0.636801,0 -0.573823,-0.49142 -0.661215,5.15937 -0.52445,33.91071 -17.406013,66.15742 -32.744863,62.54835 z M 98.25222,150.20006 c 1.594735,-3.60517 2.30953,-14.15729 1.333913,-19.69173 -2.213551,-12.55687 -5.740591,-19.12604 -9.399852,-17.50738 -1.314261,0.58136 -1.518457,1.10505 -0.981532,2.51727 0.467792,1.23038 1.037151,4.5366 1.465121,8.50782 1.278836,11.86658 2.61537,19.21775 4.494214,24.71895 1.216179,3.56093 1.994408,3.92762 3.088136,1.45507 z m 61.7329,36.1716 c -1.87976,-1.14632 -2.55813,-3.44184 -2.539,-8.59168 0.0291,-7.82408 0.68886,-11.82463 2.20615,-13.37655 3.98172,-4.0726 5.583,7.82086 1.79816,13.35575 -0.95083,1.39049 -1.05114,1.68265 -0.90054,2.62311 0.62415,3.89792 2.5318,2.01381 5.26654,-5.20155 0.84611,-2.23237 1.83551,-4.71371 2.19867,-5.51407 0.60906,-1.3423 0.65563,-1.7221 0.60013,-4.8948 -0.0806,-4.60948 0.69272,-6.25212 2.3853,-5.06659 0.55655,0.38983 0.66417,0.38135 1.46833,-0.11565 1.09569,-0.67717 1.54967,-0.46161 2.85535,1.3558 1.21497,1.69115 1.96937,1.71624 3.19405,0.10623 l 0.81725,-1.07437 0.30374,-10.03812 c 0.16706,-5.52097 0.21041,-10.13215 0.0963,-10.24706 -0.39816,-0.40107 -7.07518,4.73103 -11.80164,9.071 -3.6334,3.33628 -5.15937,3.60236 -5.15937,0.89962 0,-1.81713 7.32104,-8.50554 15.49575,-14.15671 2.2474,-1.55363 2.06111,-1.02254 2.49541,-7.11435 0.58327,-8.18148 0.84943,-9.26042 2.28437,-9.26042 1.55444,0 1.64761,1.40504 0.70611,10.64948 -0.20602,2.02282 -0.0905,2.0048 4.06597,-0.6344 13.15771,-8.35463 15.90044,-9.23342 17.45211,-5.59181 1.06671,2.50346 -0.72786,4.69829 -2.33252,2.85277 -0.93253,-1.0725 -1.63826,-0.76644 -10.26929,4.45364 -10.44073,6.3146 -9.40474,4.73207 -9.80146,14.97233 -0.72414,18.69223 0.75903,32.77678 3.50729,33.30605 1.98365,0.38202 7.87529,-18.12473 8.93545,-28.06792 0.44417,-4.16584 0.4997,-4.38898 1.20755,-4.85278 3.87005,-2.53575 1.91185,12.2131 -3.73433,28.12647 -5.02835,14.17205 -10.16309,12.38235 -12.57929,-4.38448 -0.6587,-4.57092 -0.40177,-4.12745 -2.07437,-3.58037 l -1.36835,0.44756 -1.56838,-0.80888 c -0.86262,-0.44488 -1.62368,-0.71942 -1.69125,-0.61009 -0.32558,0.52679 -0.7251,4.30867 -0.9154,8.66515 -0.28187,6.45284 -2.19665,8.73816 -3.60459,4.30213 -0.27181,-0.85638 -0.50667,-0.59172 -1.56995,1.76914 -2.5746,5.71652 -4.97203,7.72551 -7.43028,6.22642 z M 143.32769,68.769597 c -4.82342,-1.592446 -5.61223,-4.776569 -1.70953,-6.900687 3.33117,-1.813046 7.45896,-0.66301 9.14044,2.546599 1.40193,2.676009 -3.6131,5.614533 -7.43091,4.354088 z"
         id="path10" /><path
         style="fill:#5b5a5a"
         d="m 89.050587,251.17052 c -10.585456,-2.52426 -6.688997,-24.17712 9.279497,-51.56674 3.197616,-5.48464 3.166316,-5.27085 0.703576,-4.80617 -7.431827,1.40229 -8.602357,-5.40335 -2.75038,-15.99112 7.39212,-13.37429 14.09598,-16.56392 14.10231,-6.70973 0.003,4.87071 -2.72989,12.91574 -4.38767,12.91574 -1.43041,0 -1.8216,-2.22751 -0.79775,-4.5426 1.95459,-4.41967 2.77986,-9.48032 1.54602,-9.48032 -1.23597,0 -6.34932,7.01237 -8.922218,12.23578 -3.307942,6.71567 -2.925264,8.29505 1.715176,7.07881 4.322492,-1.13291 6.036932,-0.22824 5.765702,3.04241 -0.11984,1.44513 -0.0556,1.31853 -4.54491,8.96172 -11.691259,19.90489 -16.701044,35.79598 -13.421021,42.5716 1.695366,3.50216 5.779136,2.81181 10.170001,-1.71921 6.99935,-7.22276 10.18575,-12.59524 20.04519,-33.79753 2.67065,-5.74313 5.20113,-10.83543 5.62328,-11.31623 l 0.76754,-0.87418 -0.19221,-5.12622 c -0.18707,-4.989 -0.1773,-5.14114 0.36482,-5.68325 1.26807,-1.26808 2.30259,-0.19362 2.597,2.69727 0.29171,2.86435 0.45494,2.70614 2.85297,-2.76514 3.68851,-8.41561 4.84313,-10.06918 6.18373,-8.85596 1.07528,0.97312 0.93062,1.61217 -1.53461,6.7793 -2.18209,4.57365 -4.59072,10.32207 -5.97707,14.26483 -0.66628,1.89492 -0.49952,3.19767 0.40934,3.19767 1.48704,0 5.48997,-5.08498 10.48466,-13.31882 l 2.73892,-4.51516 v -3.1091 c 0,-4.66877 2.21083,-6.92153 3.04874,-3.10657 0.26171,1.19159 0.52861,0.9306 1.31329,-1.28421 3.74449,-10.56908 8.96462,-8.58437 8.5248,3.24115 -0.41316,11.10855 -4.67592,19.10416 -8.6692,16.26069 -0.44468,-0.31664 -0.87056,-0.51366 -0.94641,-0.43781 -0.74395,0.74395 0.50989,24.6268 1.58892,30.26517 0.54438,2.84461 -0.0167,4.3274 -1.49683,3.9559 -1.84683,-0.46353 -2.97687,-10.05678 -3.28263,-27.86735 -0.19636,-11.4386 -0.0821,-11.11377 -2.53433,-7.2045 -4.76284,7.59278 -8.39711,11.33889 -11.10277,11.44446 -1.30306,0.0508 -1.3887,0.20031 -1.76036,3.07224 -0.36384,2.81157 -1.19578,4.60906 -2.18628,4.7237 -1.38932,0.1608 -1.9002,-1.52894 -1.18448,-3.91771 2.50428,-8.35824 0.63561,-6.06494 -5.11467,6.27692 -11.98298,25.71915 -21.225013,36.86903 -29.019683,35.01027 z m 59.800083,-60.13875 c 1.9942,-2.61754 3.78295,-13.76369 2.57195,-16.02646 -0.67241,-1.25641 -2.00895,1.35131 -3.20448,6.25225 -1.90137,7.79442 -1.58489,12.68476 0.63253,9.77421 z m 11.13445,-4.66011 c -1.87976,-1.14632 -2.55813,-3.44184 -2.539,-8.59168 0.0291,-7.82408 0.68886,-11.82463 2.20615,-13.37655 3.98172,-4.0726 5.583,7.82086 1.79816,13.35575 -0.95083,1.39049 -1.05114,1.68265 -0.90054,2.62311 0.62415,3.89792 2.5318,2.01381 5.26654,-5.20155 0.84611,-2.23237 1.83551,-4.71371 2.19867,-5.51407 0.60906,-1.3423 0.65563,-1.7221 0.60013,-4.8948 -0.0806,-4.60948 0.69272,-6.25212 2.3853,-5.06659 0.55655,0.38983 0.66417,0.38135 1.46833,-0.11565 1.09569,-0.67717 1.54967,-0.46161 2.85535,1.3558 1.21497,1.69115 1.96937,1.71624 3.19405,0.10623 l 0.81725,-1.07437 0.30374,-10.03812 c 0.16706,-5.52097 0.21041,-10.13215 0.0963,-10.24706 -0.39816,-0.40107 -7.07518,4.73103 -11.80164,9.071 -3.6334,3.33628 -5.15937,3.60236 -5.15937,0.89962 0,-1.81713 7.32104,-8.50554 15.49575,-14.15671 2.2474,-1.55363 2.06111,-1.02254 2.49541,-7.11435 0.58327,-8.18148 0.84943,-9.26042 2.28437,-9.26042 1.55444,0 1.64761,1.40504 0.70611,10.64948 -0.20602,2.02282 -0.0905,2.0048 4.06597,-0.6344 13.15771,-8.35463 15.90044,-9.23342 17.45211,-5.59181 1.06671,2.50346 -0.72786,4.69829 -2.33252,2.85277 -0.93253,-1.0725 -1.63826,-0.76644 -10.26929,4.45364 -10.44073,6.3146 -9.40474,4.73207 -9.80146,14.97233 -0.72414,18.69223 0.75903,32.77678 3.50729,33.30605 1.98365,0.38202 7.87529,-18.12473 8.93545,-28.06792 0.44417,-4.16584 0.4997,-4.38898 1.20755,-4.85278 3.87005,-2.53575 1.91185,12.2131 -3.73433,28.12647 -5.02835,14.17205 -10.16309,12.38235 -12.57929,-4.38448 -0.6587,-4.57092 -0.40177,-4.12745 -2.07437,-3.58037 l -1.36835,0.44756 -1.56838,-0.80888 c -0.86262,-0.44488 -1.62368,-0.71942 -1.69125,-0.61009 -0.32558,0.52679 -0.7251,4.30867 -0.9154,8.66515 -0.28187,6.45284 -2.19665,8.73816 -3.60459,4.30213 -0.27181,-0.85638 -0.50667,-0.59172 -1.56995,1.76914 -2.5746,5.71652 -4.97203,7.72551 -7.43028,6.22642 z"
         id="path9" /><path
         style="fill:#353434"
         d="m 87.777495,250.30941 c -8.423086,-4.90652 -4.028914,-25.30105 10.927795,-50.71883 3.37919,-5.74267 3.37155,-5.87209 -0.296698,-5.02813 -8.609683,1.98085 -6.813293,-10.02393 3.571648,-23.86835 6.9441,-9.25735 11.02635,-0.86388 5.67708,11.67257 -2.03391,4.76663 -3.71745,2.01191 -1.75691,-2.87477 4.20893,-10.49081 1.50808,-11.88143 -4.79945,-2.47114 -7.144887,10.65956 -7.5207,15.14025 -1.135705,13.54067 5.552465,-1.39102 6.639815,1.05918 3.138285,7.07169 -5.142695,8.83056 -6.461431,11.21459 -8.841995,15.98465 -17.035968,34.13588 -4.944785,47.87651 13.865025,15.75646 1.79549,-3.066 4.90967,-9.45441 10.46865,-21.47527 2.48259,-5.36841 4.34522,-9.05857 4.83609,-9.58108 l 0.79838,-0.84983 -0.17569,-5.05221 c -0.18896,-5.43396 -0.0815,-6.08042 1.01113,-6.08042 0.87471,0 1.00957,0.31044 1.32174,3.0427 0.41293,3.61415 0.7931,3.38111 3.02125,-1.85208 2.97496,-6.98716 4.72318,-10.18646 5.5663,-10.18646 1.46022,0 1.3658,2.09098 -0.2297,5.08672 -1.53759,2.88701 -3.73706,7.88223 -5.54191,12.58627 -2.07472,5.40741 -2.01456,5.18171 -1.62907,6.11238 1.15055,2.77768 5.00505,-1.35777 12.12302,-13.00664 l 2.30197,-3.76727 0.13531,-3.65973 c 0.11929,-3.22638 0.19613,-3.70416 0.64891,-4.0349 0.95898,-0.70051 1.58856,-0.15971 1.85094,1.58994 0.31202,2.08069 0.85679,1.8165 1.59698,-0.77448 3.6367,-12.73005 9.9965,-8.038 7.93383,5.85333 -1.41054,9.49953 -4.90056,14.75529 -8.04249,12.11153 -1.13161,-0.95218 -1.60421,-0.69314 -1.6026,0.8784 0.009,8.28404 0.97147,24.22161 1.71877,28.44669 0.51849,2.93138 0.49779,3.73334 -0.11055,4.28388 -0.58326,0.52784 -1.47163,0.22945 -1.71223,-0.57511 -1.08671,-3.63397 -1.90088,-14.07655 -2.18409,-28.01353 -0.231,-11.36746 0.1313,-10.99857 -4.25468,-4.33206 -4.57418,6.95255 -7.27684,9.525 -10.00716,9.525 -1.00177,0 -1.18446,0.0849 -1.28133,0.59531 -0.0621,0.32742 -0.29006,1.68419 -0.50651,3.01504 -0.5999,3.68859 -1.43117,4.95691 -2.57209,3.9244 -0.63536,-0.57499 -0.62342,-1.0753 0.10089,-4.22746 0.71835,-3.12622 0.47327,-5.38021 -0.4709,-4.33079 -0.17915,0.19912 -2.20928,4.41016 -4.51141,9.35787 -9.22918,19.83527 -13.72344,27.0492 -21.114844,33.89234 -3.004392,2.78153 -7.379512,3.86362 -9.835981,2.4327 z m 60.898175,-58.48389 c 2.79484,-3.05045 4.82026,-17.66094 2.4483,-17.66094 -2.10146,0 -5.47705,14.07949 -4.13909,17.26406 0.47835,1.13858 0.91692,1.24152 1.69079,0.39688 z m 12.11452,-5.41423 c -4.01828,-0.96687 -4.14018,-21.16111 -0.13541,-22.43218 3.40376,-1.08031 3.58458,9.36369 0.24269,14.0172 -0.75773,1.05512 -0.82609,1.30169 -0.67219,2.42455 0.6688,4.87937 3.1627,2.38307 6.38245,-6.38857 0.69439,-1.89177 1.54475,-4.00117 1.88969,-4.68756 0.57259,-1.13941 0.62715,-1.57786 0.62715,-5.04031 0,-2.59682 0.10009,-3.89243 0.3175,-4.10984 0.38512,-0.38512 1.44084,-0.41864 1.66687,-0.0529 0.24429,0.39526 1.08046,0.31924 1.45521,-0.1323 0.61645,-0.74277 1.41249,-0.46354 2.19081,0.76847 1.63878,2.59404 3.21385,2.44324 4.6126,-0.44162 0.82821,-1.70815 1.14847,-21.09664 0.34847,-21.09664 -0.95616,0 -8.52375,5.93422 -12.87837,10.09874 -2.15374,2.05971 -2.99608,2.31225 -3.51708,1.05444 -0.78152,-1.88677 2.88211,-5.53288 13.34461,-13.28078 2.03729,-1.5087 3.77046,-2.83738 3.85149,-2.95263 0.081,-0.11525 0.357,-2.97817 0.61327,-6.36205 0.6197,-8.1828 1.11985,-9.70008 2.59642,-7.8766 0.57325,0.70793 0.56923,0.42391 0.0805,5.69284 -0.67753,7.30456 -0.97422,7.06769 4.53322,3.6192 13.4181,-8.40173 15.68581,-9.08259 16.77875,-5.03769 0.54485,2.0165 -0.94826,3.50857 -1.96231,1.96093 -0.85146,-1.29949 -1.74761,-0.94405 -9.82261,3.89593 -11.1853,6.70423 -10.32321,5.63759 -10.6895,13.22573 -0.9516,19.7137 0.45957,34.48048 3.46771,36.28687 2.2584,1.35617 8.646,-18.28493 9.69216,-29.80223 0.24678,-2.71685 0.57351,-3.45463 1.47275,-3.32557 2.58717,0.37131 -0.17364,15.32901 -5.4597,29.57996 -4.48774,12.09873 -9.453,9.06463 -11.41866,-6.97756 -0.44274,-3.61334 -0.55892,-3.82439 -1.76258,-3.20195 -1.11998,0.57916 -2.97062,0.39696 -3.79039,-0.37318 -1.73708,-1.6319 -2.28184,0.34146 -2.71049,9.81844 -0.22815,5.04436 -1.4792,6.46966 -2.72307,3.10236 -0.66848,-1.80965 -0.8016,-1.67758 -2.8739,2.85119 -1.09147,2.38529 -2.7551,4.50751 -3.91262,4.99115 -0.92895,0.38814 -0.97045,0.39231 -1.83546,0.18417 z"
         id="path8" /></g></g></svg>
